<svg width="74" height="74" viewBox="0 0 74 74" fill="none" xmlns="http://www.w3.org/2000/svg">
<circle cx="37" cy="37" r="36" fill="white" stroke="#D7D7D7" stroke-width="2"/>
<path d="M32.266 35.5L32 18H42L41.734 35.5L41.2021 44.1H32.7979L32.266 35.5ZM37 46.6C38.4184 46.6 39.5887 47.0333 40.5106 47.9C41.4681 48.7667 41.9468 49.9 41.9468 51.3C41.9468 52.7 41.4681 53.8333 40.5106 54.7C39.5887 55.5667 38.4184 56 37 56C35.5816 56 34.3936 55.55 33.4362 54.65C32.4787 53.75 32 52.6333 32 51.3C32 49.9 32.4787 48.7667 33.4362 47.9C34.3936 47.0333 35.5816 46.6 37 46.6Z" fill="#5C5C5C"/>
</svg>
