<svg width="50" height="50" viewBox="0 0 50 50" fill="none" xmlns="http://www.w3.org/2000/svg">
<rect width="50" height="50" fill="#24232B"/>
<path fill-rule="evenodd" clip-rule="evenodd" d="M35.3282 21.1285C35.5718 21.318 35.7143 21.6093 35.7143 21.9179L35.7143 33.524C35.7143 34.0763 35.2666 34.524 34.7143 34.524H15.2857C14.7335 34.524 14.2857 34.0763 14.2857 33.524V21.9179C14.2857 21.6093 14.4282 21.318 14.6718 21.1285L24.3861 13.573C24.7472 13.2921 25.2529 13.2921 25.614 13.573L35.3282 21.1285ZM23.6191 27.381C23.0668 27.381 22.6191 27.8288 22.6191 28.381V34.5239H27.381V28.381C27.381 27.8288 26.9332 27.381 26.381 27.381H23.6191Z" fill="white"/>
</svg>
