<svg width="24" height="24" viewBox="0 0 24 24" fill="none" xmlns="http://www.w3.org/2000/svg">
<circle cx="11.8711" cy="11.9017" r="11.8711" fill="#FF6600"/>
<path d="M11.627 5.8557C11.7627 5.72302 11.9795 5.72302 12.1152 5.8557L16.6542 10.2939C16.7213 10.3596 16.7592 10.4496 16.7592 10.5436V15.7424C16.7592 15.9352 16.6029 16.0916 16.4101 16.0916H13.6867C13.4938 16.0916 13.3375 15.9352 13.3375 15.7424V13.3899C13.3375 13.197 13.1812 13.0407 12.9884 13.0407H10.7538C10.561 13.0407 10.4047 13.197 10.4047 13.3899V15.7424C10.4047 15.9352 10.2483 16.0916 10.0555 16.0916H7.33212C7.13929 16.0916 6.98297 15.9352 6.98297 15.7424V10.5436C6.98297 10.4496 7.02084 10.3596 7.08802 10.2939L11.627 5.8557Z" fill="white"/>
</svg>
