<svg width="24" height="24" viewBox="0 0 24 24" fill="none" xmlns="http://www.w3.org/2000/svg">
<circle cx="12.0182" cy="11.9017" r="11.8711" fill="#FFD600"/>
<path fill-rule="evenodd" clip-rule="evenodd" d="M12.0656 6.34845C8.62225 6.34845 5.83142 8.55463 5.83142 11.2776C5.83142 13.051 7.01365 14.6014 8.79022 15.4703C8.75352 15.6089 8.69961 15.811 8.63969 16.0357L8.63915 16.0378L8.63864 16.0397L8.63863 16.0397L8.63857 16.0399L8.63854 16.04C8.48769 16.6057 8.29923 17.3125 8.25079 17.5085C8.1668 17.8477 8.37676 17.8445 8.51243 17.7508C8.61902 17.6797 10.2212 16.5912 10.9124 16.1196C11.2871 16.1745 11.6747 16.2036 12.0688 16.2036C15.5121 16.2036 18.3029 13.9974 18.3029 11.2744C18.3029 8.55463 15.5089 6.34845 12.0656 6.34845ZM9.55903 9.82661H7.73401C7.56281 9.82661 7.42392 9.96551 7.42392 10.1367C7.42392 10.3079 7.56281 10.4468 7.73401 10.4468H8.32835V12.6304C8.32835 12.7111 8.36065 12.7886 8.4188 12.8436C8.47371 12.8985 8.55123 12.9308 8.63198 12.9308H8.69982C8.78057 12.9308 8.85809 12.8985 8.91301 12.8436C8.97115 12.7854 9.00345 12.7079 9.00345 12.6304V10.4468H9.56226C9.73346 10.4468 9.87235 10.3079 9.87235 10.1367C9.86912 9.96551 9.73023 9.82661 9.55903 9.82661ZM13.0928 12.35H13.9391C14.0941 12.35 14.2201 12.476 14.2201 12.631C14.2201 12.786 14.0941 12.912 13.9391 12.912H12.7019C12.5469 12.912 12.4209 12.786 12.4209 12.631C12.4209 12.6116 12.4241 12.5922 12.4274 12.5761L12.4261 12.5688L12.4261 12.5688C12.4234 12.5525 12.4209 12.5381 12.4209 12.5212V10.118C12.4209 9.93384 12.5695 9.78203 12.7568 9.78203C12.9409 9.78203 13.0928 9.93061 13.0928 10.118V12.35ZM15.7029 11.2131L16.5556 10.3603C16.6719 10.244 16.6719 10.0567 16.5556 9.94039C16.4393 9.8241 16.252 9.8241 16.1357 9.94039L15.0795 10.9966V10.1213C15.0795 9.93393 14.9276 9.78534 14.7435 9.78534C14.5562 9.78534 14.4076 9.93716 14.4076 10.1213V12.5988C14.4076 12.7861 14.5594 12.9347 14.7435 12.9347C14.9309 12.9347 15.0795 12.7829 15.0795 12.5988V11.8332L15.27 11.6427L16.1648 12.8152C16.2649 12.9476 16.4523 12.9767 16.5847 12.8766C16.7236 12.7732 16.7494 12.5859 16.6493 12.4534L15.7029 11.2131ZM11.2579 10.0469L12.1656 12.5341C12.2205 12.6891 12.1398 12.8603 11.9815 12.9185C11.8232 12.9734 11.652 12.8926 11.5971 12.7344L11.4421 12.2918H10.1985L10.0434 12.7344C9.9885 12.8894 9.81731 12.9734 9.65903 12.9185C9.50398 12.8636 9.42 12.6924 9.47491 12.5341L10.3697 10.1373C10.3729 10.1212 10.3793 10.1083 10.3858 10.0953C10.4246 9.91769 10.6055 9.78203 10.8283 9.78203C11.0286 9.78203 11.1966 9.89185 11.2547 10.0437L11.2579 10.0469ZM10.8154 10.5346L10.3987 11.7266H11.245L10.8283 10.5346H10.8154Z" fill="#603900"/>
</svg>
