<svg width="72" height="71" viewBox="0 0 72 71" fill="none" xmlns="http://www.w3.org/2000/svg">
<path d="M60.33 0H11.34C5.07709 0 0 5.07709 0 11.34V59.66C0 65.9229 5.07709 71 11.34 71H60.33C66.5929 71 71.67 65.9229 71.67 59.66V11.34C71.67 5.07709 66.5929 0 60.33 0Z" fill="#00C73C"/>
<path d="M45.3947 15.575H57V56H15V15.575H26.3289V12H29.3684V15.575H42.9079V12H45.9474L45.3947 15.575ZM54.2368 21.35H17.7632V53.25H53.9605L54.2368 21.35V21.35ZM32.4079 36.2V45.55H26.6053V28.225H32.4079L39.3158 37.575V28.225H45.1184V45.55H39.5921L32.4079 36.2Z" fill="white"/>
</svg>
