<svg width="100" height="78" viewBox="0 0 100 78" fill="none" xmlns="http://www.w3.org/2000/svg">
<rect width="100" height="78" fill="white"/>
<g clip-path="url(#clip0_105_35)">
<path d="M57.0677 18.6337C56.4265 18.6337 55.8114 18.8885 55.358 19.3419C54.9046 19.7953 54.6498 20.4103 54.6498 21.0515C54.6498 21.6941 54.9041 22.3105 55.3571 22.7662C55.8101 23.2219 56.4252 23.4798 57.0677 23.4835C57.7116 23.4798 58.3279 23.2224 58.7831 22.7671C59.2384 22.3118 59.4959 21.6954 59.4996 21.0515C59.4959 20.409 59.238 19.794 58.7823 19.341C58.3266 18.888 57.7102 18.6337 57.0677 18.6337V18.6337ZM64.3352 18.6337C63.694 18.6337 63.0789 18.8885 62.6255 19.3419C62.1721 19.7953 61.9173 20.4103 61.9173 21.0515C61.9172 21.6892 62.1677 22.3014 62.6146 22.7563C63.0615 23.2112 63.6692 23.4723 64.3067 23.4835C64.9493 23.4798 65.5641 23.2219 66.0172 22.7662C66.4702 22.3105 66.7245 21.6941 66.7244 21.0515C66.7244 20.734 66.6619 20.4196 66.5404 20.1263C66.4189 19.8329 66.2408 19.5664 66.0163 19.3419C65.7918 19.1174 65.5252 18.9393 65.2319 18.8178C64.9386 18.6963 64.6242 18.6337 64.3067 18.6337H64.3352ZM70.8204 7.00001H57.3378C53.5659 7.00001 49.9484 8.49841 47.2813 11.1656C44.6141 13.8328 43.1157 17.4502 43.1157 21.2222C43.1211 24.0058 43.9433 26.7267 45.4804 29.0475C47.0175 31.3682 49.202 33.187 51.7629 34.2781V41.8301L63.7236 35.359H70.8347C74.6066 35.359 78.2241 33.8606 80.8912 31.1934C83.5584 28.5263 85.0568 24.9088 85.0568 21.1368C85.0343 17.3772 83.524 13.7795 80.8562 11.1304C78.1884 8.4812 74.5801 6.99618 70.8204 7.00001V7.00001ZM70.8204 31.0639H62.6712L56.1005 34.6195V31.1208L54.5503 30.6657C52.5047 30.0558 50.7092 28.8046 49.4288 27.0965C48.1484 25.3885 47.4509 23.3141 47.4393 21.1795C47.4616 18.5662 48.5106 16.0665 50.3599 14.2199C52.2092 12.3733 54.7103 11.3279 57.3236 11.3093H70.8062C72.1024 11.3093 73.3859 11.5646 74.5834 12.0607C75.7809 12.5567 76.869 13.2837 77.7855 14.2002C78.702 15.1168 79.4291 16.2049 79.9251 17.4024C80.4211 18.5999 80.6765 19.8833 80.6765 21.1795C80.658 23.7904 79.6145 26.2895 77.7709 28.1384C75.9274 29.9872 73.4312 31.0379 70.8204 31.0639V31.0639ZM67.4783 59.0389L55.5174 49.0834C54.9993 48.5821 54.304 48.3061 53.5832 48.3154C53.2215 48.3103 52.8626 48.3781 52.5278 48.515C52.193 48.6518 51.8892 48.8549 51.6347 49.1119L49.7148 51.0319C49.1323 51.6043 48.3483 51.925 47.5316 51.925C46.715 51.925 45.9311 51.6043 45.3486 51.0319L39.873 45.5563L34.3975 40.0808C34.1106 39.7942 33.8831 39.4538 33.7278 39.0793C33.5726 38.7047 33.4928 38.3032 33.4928 37.8977C33.4928 37.4922 33.5726 37.0907 33.7278 36.7161C33.8831 36.3415 34.1106 36.0012 34.3975 35.7146L36.3174 33.7946C36.5736 33.5365 36.776 33.2301 36.9127 32.8932C37.0495 32.5562 37.1178 32.1955 37.1139 31.8319C37.1115 31.1133 36.837 30.4223 36.3459 29.8977L26.3905 17.9511C26.1246 17.6318 25.7918 17.3747 25.4159 17.1978C25.04 17.0209 24.63 16.9285 24.2145 16.9271C23.7777 16.9315 23.3476 17.0364 22.9579 17.2337C22.5682 17.431 22.2293 17.7154 21.9673 18.0649L21.7968 18.2924C19.6493 21.1368 16.8333 25.816 16.8333 30.1537C16.8333 36.0986 21.313 43.5652 29.3912 51.6861L31.5103 53.791C39.6312 61.8834 49.2029 68.4682 55.1477 68.4682C59.4144 68.4682 64.1077 65.6238 67.009 63.5047L67.2366 63.334C67.5879 63.0705 67.8734 62.7293 68.0708 62.3369C68.2682 61.9446 68.3721 61.5119 68.3743 61.0727C68.3691 60.6909 68.2871 60.3141 68.1331 59.9647C67.9792 59.6153 67.7565 59.3005 67.4783 59.0389V59.0389ZM71.3041 18.6622C70.6629 18.6622 70.0478 18.9169 69.5944 19.3703C69.141 19.8238 68.8862 20.4387 68.8862 21.08C68.8862 21.7225 69.1405 22.339 69.5935 22.7946C70.0465 23.2503 70.6616 23.5082 71.3041 23.512C71.9491 23.512 72.5676 23.2557 73.0237 22.7996C73.4798 22.3436 73.736 21.725 73.736 21.08C73.7398 20.7589 73.6797 20.4402 73.559 20.1427C73.4383 19.8451 73.2595 19.5746 73.0331 19.3468C72.8067 19.1191 72.5371 18.9388 72.2402 18.8163C71.9434 18.6939 71.6252 18.6318 71.3041 18.6337V18.6622Z" fill="#B39A85"/>
</g>
<defs>
<clipPath id="clip0_105_35">
<rect width="68.11" height="61.5678" fill="white" transform="translate(16.89 7)"/>
</clipPath>
</defs>
</svg>
