<?xml version="1.0" encoding="utf-8"?>
<!-- Generator: Adobe Illustrator 26.0.2, SVG Export Plug-In . SVG Version: 6.00 Build 0)  -->
<svg version="1.1" id="Layer_1" xmlns="http://www.w3.org/2000/svg" xmlns:xlink="http://www.w3.org/1999/xlink" x="0px" y="0px"
	 viewBox="0 0 38.9 16" style="enable-background:new 0 0 38.9 16;" xml:space="preserve">
<style type="text/css">
	.st0{fill:#00C73C;}
</style>
<path class="st0" d="M11.4,1.3h4.2V16H0.4V1.3h4.1V0h1.1v1.3h4.9V0h1.1L11.4,1.3z M14.6,3.4H1.4V15h13.1L14.6,3.4L14.6,3.4z
	 M6.7,8.8v3.4H4.6V5.9h2.1l2.5,3.4V5.9h2.1v6.3h-2L6.7,8.8z"/>
<g>
	<path d="M22,4.4c1,0,1.7,0.5,2,1.5h1.4v-2h1.1v9.4h-1.1V9.7H24c-0.3,1-1,1.5-2,1.5c-0.7,0-1.3-0.2-1.7-0.7C20,10,19.8,9.3,19.8,8.4
		V7.3C19.8,5.3,20.5,4.4,22,4.4z M22,10.3c0.4,0,0.7-0.2,0.9-0.5c0.2-0.4,0.3-0.9,0.3-1.6V7.4c0-0.7-0.1-1.2-0.3-1.6
		c-0.2-0.3-0.5-0.5-0.9-0.5c-0.4,0-0.7,0.2-0.9,0.5c-0.2,0.3-0.3,0.9-0.3,1.6v0.8c0,0.7,0.1,1.2,0.3,1.6
		C21.3,10.1,21.6,10.3,22,10.3z M24.2,8.4c0,0.1,0,0.2,0,0.2s0,0.1,0,0.2h1.2v-2h-1.2c0,0.1,0,0.2,0,0.2s0,0.2,0,0.3V8.4z
		 M28.4,13.7h-1.1V3.6h1.1V13.7z"/>
	<path d="M34.7,6.7c0,0.2,0,0.5-0.1,0.8c-0.1,0.3-0.3,0.5-0.5,0.7c-0.2,0.2-0.5,0.4-0.8,0.5C33,8.9,32.6,9,32.2,9s-0.8-0.1-1.1-0.2
		c-0.3-0.1-0.6-0.3-0.8-0.5c-0.2-0.2-0.4-0.5-0.5-0.7c-0.1-0.3-0.1-0.5-0.1-0.8V6.2c0-0.2,0-0.5,0.1-0.8c0.1-0.3,0.3-0.5,0.5-0.7
		c0.2-0.2,0.5-0.4,0.8-0.5C31.4,4,31.8,4,32.2,4S33,4,33.3,4.2c0.3,0.1,0.6,0.3,0.8,0.5c0.2,0.2,0.4,0.5,0.5,0.7
		c0.1,0.3,0.1,0.5,0.1,0.8V6.7z M33.7,6.2c0-0.2,0-0.3-0.1-0.5s-0.1-0.3-0.3-0.4C33.2,5.2,33,5.1,32.8,5c-0.2-0.1-0.4-0.1-0.7-0.1
		c-0.3,0-0.5,0-0.7,0.1s-0.3,0.2-0.5,0.3c-0.1,0.1-0.2,0.3-0.3,0.4s-0.1,0.3-0.1,0.5v0.5c0,0.2,0,0.3,0.1,0.5
		c0.1,0.2,0.1,0.3,0.3,0.4s0.3,0.2,0.5,0.3C31.7,8,31.9,8,32.2,8c0.2,0,0.5,0,0.7-0.1c0.2-0.1,0.3-0.2,0.5-0.3s0.2-0.3,0.3-0.4
		c0.1-0.2,0.1-0.3,0.1-0.5V6.2z M31,10h6.4v3.8h-1.1v-2.9H31V10z M38.9,5.9h-1.4v1.1h1.4V8h-1.4v1.5h-1.1V3.6h1.1V5h1.4V5.9z"/>
</g>
</svg>
