<?xml version="1.0" encoding="utf-8"?>
<!-- Generator: Adobe Illustrator 23.0.4, SVG Export Plug-In . SVG Version: 6.00 Build 0)  -->
<svg version="1.1" id="Layer_1" xmlns="http://www.w3.org/2000/svg" xmlns:xlink="http://www.w3.org/1999/xlink" x="0px" y="0px"
	 viewBox="0 0 24 24" style="enable-background:new 0 0 24 24;" xml:space="preserve">
<style type="text/css">
	.st0{fill:#3DAE44;}
	.st1{fill:#FFFFFF;}
</style>
<circle class="st0" cx="12" cy="11.9" r="11.9"/>
<g>
	<path class="st1" d="M17.9,7.3L17.9,7.3l-1.3-1.2c-0.3-0.3-0.7-0.5-1.1-0.5H7.2c-0.8,0-1.5,0.7-1.5,1.5v9.3c0,0.3,0,0.5,0.1,0.6
		c0,0,0.1,0.1,0.1,0.1l1.2,1.1c0,0,0,0,0.1,0.1l0,0l0,0c0,0,0,0,0.1,0c0.1,0,0.2,0.1,0.2,0.1c0.2,0,0.4-0.1,0.5-0.2l1.4-1.4
		c0.3-0.4,1.1-0.4,1.4-0.4h6.1c0.8,0,1.5-0.7,1.5-1.5V8.3C18.3,7.9,18.2,7.5,17.9,7.3z M16.6,7.3v6.4c0,0.6-0.4,1-1,1H9.5
		c-0.1,0-1.3,0-1.8,0.6l-0.3,0.3l-0.5,0.5l-0.6,0.6c0,0-0.1,0.1-0.2,0.1l0,0c0,0-0.1-0.1-0.1-0.3V7.1c0-0.6,0.4-1,1-1h8.4
		c0.4,0,0.8,0.3,0.9,0.7c0,0.1,0.1,0.2,0.1,0.3V7.3z"/>
	<path class="st1" d="M9,8.8c-0.4,0-0.7,0.3-0.7,0.7v1.6c0,0.4,0.3,0.7,0.7,0.7s0.7-0.3,0.7-0.7V9.5C9.7,9.1,9.4,8.8,9,8.8z"/>
	<path class="st1" d="M13.6,8.8c-0.4,0-0.7,0.3-0.7,0.7v1.6c0,0.4,0.3,0.7,0.7,0.7s0.7-0.3,0.7-0.7V9.5C14.4,9.1,14,8.8,13.6,8.8z"
		/>
</g>
</svg>
