<svg width="100" height="78" viewBox="0 0 100 78" fill="none" xmlns="http://www.w3.org/2000/svg">
<rect width="100" height="78" fill="white"/>
<g clip-path="url(#clip0_105_30)">
<path d="M62.7759 45.1003L73.4465 55.7549L79.0976 61.4059C80.0489 62.367 80.5825 63.6646 80.5825 65.0168C80.5825 66.369 80.0489 67.6667 79.0976 68.6277C78.6201 69.1034 78.0532 69.48 77.4296 69.736C76.806 69.9919 76.1379 70.1222 75.4638 70.1192C74.7898 70.1161 74.1229 69.98 73.5016 69.7185C72.8803 69.457 72.3168 69.0753 71.8435 68.5953L66.1762 62.9442L55.6513 52.3059" stroke="#B39A85" stroke-width="4.85767" stroke-linecap="round" stroke-linejoin="round"/>
<path d="M26.5053 48.323C30.7801 52.5925 36.5748 54.9908 42.6166 54.9908C48.6583 54.9908 54.4531 52.5925 58.7278 48.323C62.9974 44.0482 65.3956 38.2535 65.3956 32.2118C65.3956 26.17 62.9974 20.3752 58.7278 16.1005C54.4531 11.8309 48.6583 9.43262 42.6166 9.43262C36.5748 9.43262 30.7801 11.8309 26.5053 16.1005C22.2357 20.3752 19.8375 26.17 19.8375 32.2118C19.8375 38.2535 22.2357 44.0482 26.5053 48.323V48.323Z" stroke="#B39A85" stroke-width="4.85767" stroke-linecap="round" stroke-linejoin="round"/>
<path d="M32.9822 41.9429C35.5599 44.5177 39.0542 45.964 42.6975 45.964C46.3409 45.964 49.8352 44.5177 52.4129 41.9429C54.9877 39.3652 56.4339 35.8709 56.4339 32.2275C56.4339 28.5842 54.9877 25.0899 52.4129 22.5122C49.8352 19.9374 46.3409 18.4912 42.6975 18.4912C39.0542 18.4912 35.5599 19.9374 32.9822 22.5122C30.4074 25.0899 28.9611 28.5842 28.9611 32.2275C28.9611 35.8709 30.4074 39.3652 32.9822 41.9429V41.9429Z" stroke="#B39A85" stroke-width="4.85767" stroke-linecap="round" stroke-linejoin="round"/>
<path d="M42.0498 26.7219C41.4094 26.7204 40.775 26.8454 40.1831 27.09C39.5912 27.3345 39.0534 27.6937 38.6009 28.1469C38.1477 28.5994 37.7886 29.1371 37.544 29.729C37.2995 30.3209 37.1744 30.9554 37.1759 31.5958" stroke="#B39A85" stroke-width="4.85767" stroke-linecap="round" stroke-linejoin="round"/>
</g>
<defs>
<clipPath id="clip0_105_30">
<rect width="65.53" height="65.53" fill="white" transform="translate(17.47 7)"/>
</clipPath>
</defs>
</svg>
