<svg width="24" height="24" viewBox="0 0 24 24" fill="none" xmlns="http://www.w3.org/2000/svg">
<circle cx="11.9447" cy="11.9017" r="11.8711" fill="#4BD767"/>
<path fill-rule="evenodd" clip-rule="evenodd" d="M16.5494 6.93536H7.33063C6.40609 6.93536 5.65045 7.66879 5.65045 8.56615V13.8727C5.65045 14.7787 6.40609 15.5035 7.33063 15.5035H10.5843L11.6956 18.0489C11.6956 18.0489 11.7756 18.2646 11.9534 18.2646C12.14 18.2646 12.2112 18.0489 12.2112 18.0489L13.3224 15.5207H16.5494C17.4828 15.5207 18.2296 14.7873 18.2296 13.8899V8.56615C18.2385 7.66879 17.4828 6.93536 16.5494 6.93536ZM9.60644 11.6293C9.59755 12.5957 8.56632 12.6302 8.56632 12.6302C8.16628 12.6302 7.94403 12.3713 7.94403 12.3713V12.5439H7.1884V9.53254C7.23285 9.54117 7.94403 9.53254 7.94403 9.53254V10.6888C8.12183 10.3954 8.63744 10.404 8.63744 10.404C9.73978 10.4989 9.60644 11.6293 9.60644 11.6293ZM10.931 10.4903V12.5525H10.1932V10.5076C10.1932 10.2315 9.83757 10.1538 9.83757 10.1538V9.429C11.011 9.48077 10.931 10.4903 10.931 10.4903ZM12.6734 12.6302C11.9889 12.6302 11.4377 12.1384 11.4377 11.5257C11.4377 10.9131 11.9889 10.4213 12.6734 10.4213C13.358 10.4213 13.9091 10.9131 13.9091 11.5257C13.9091 12.1384 13.358 12.6302 12.6734 12.6302ZM16.7183 12.6302C16.7183 12.6302 16.7272 13.6829 15.6338 13.6829H15.2959V13.0012H15.5004C15.5004 13.0012 15.9627 13.0443 15.9538 12.3541C15.9538 12.3541 15.8649 12.6302 15.2159 12.6302C15.2159 12.6302 14.3003 12.5698 14.3003 11.6983V11.3704C14.3003 11.3704 14.3181 10.4731 15.3315 10.3954C15.3315 10.3954 15.7315 10.3523 15.9716 10.6715V10.4472H16.7183V12.6302ZM12.2111 11.5172C12.2111 11.2756 12.4156 11.0685 12.6734 11.0685C12.9312 11.0685 13.1446 11.2756 13.1357 11.5172C13.1357 11.7674 12.9312 11.9658 12.6734 11.9658C12.4245 11.9658 12.2111 11.7674 12.2111 11.5172ZM7.96175 11.543C7.96175 11.31 8.15733 11.1202 8.39736 11.1202C8.63738 11.1202 8.83296 11.3014 8.83296 11.543C8.83296 11.776 8.63738 11.9658 8.39736 11.9658C8.15733 11.9658 7.96175 11.776 7.96175 11.543ZM15.0914 11.5258C15.0914 11.2842 15.2959 11.0857 15.5448 11.0857C15.7937 11.0857 15.9982 11.2842 15.9982 11.5258C15.9982 11.7674 15.7937 11.9658 15.5448 11.9658C15.2959 11.9658 15.0914 11.7674 15.0914 11.5258Z" fill="white"/>
</svg>
