<svg width="100" height="100" viewBox="0 0 100 100" fill="none" xmlns="http://www.w3.org/2000/svg">
<rect width="100" height="100" fill="white"/>
<g clip-path="url(#clip0_105_40)">
<path d="M82.205 25.7626L75.4965 19.5786C74.7541 18.7716 73.8524 18.1271 72.8485 17.6859C71.8446 17.2447 70.7601 17.0162 69.6635 17.0149H24.9645C22.8476 17.0168 20.8178 17.8584 19.3205 19.3549C17.8233 20.8515 16.9807 22.8809 16.9778 24.9979V74.285C16.9778 75.6592 17.229 76.6787 17.7425 77.4028C17.915 77.6502 18.1272 77.8674 18.3705 78.0456L24.7872 83.9562C24.8848 84.0632 24.9911 84.1621 25.1049 84.2517L25.164 84.3071C25.2649 84.3885 25.3724 84.4615 25.4854 84.5251C25.8752 84.7239 26.3075 84.8254 26.7451 84.8206C27.617 84.7784 28.4593 84.4915 29.1758 83.9931L36.6712 76.3204C38.2597 74.3995 42.5412 73.9709 44.0595 73.9672H76.4275C78.5448 73.9643 80.5745 73.1219 82.0716 71.6248C83.5688 70.1276 84.4112 68.0979 84.4141 65.9806V31.2558C84.4218 29.2068 83.6292 27.2357 82.205 25.7626V25.7626ZM74.9978 25.9177V59.6969C74.9968 61.1084 74.4357 62.4617 73.4376 63.4598C72.4395 64.4579 71.0861 65.0191 69.6746 65.0201H37.3066C36.6195 65.0201 30.539 65.1124 27.942 68.2598L26.4422 69.7966L23.7824 72.5303L20.8086 75.5853C20.5616 75.7422 20.2827 75.8418 19.9922 75.8771H19.9627C19.9627 75.8771 19.6634 75.589 19.6634 74.2702V24.9831C19.6654 23.5719 20.2269 22.2191 21.2248 21.2212C22.2226 20.2233 23.5755 19.6618 24.9867 19.6599H69.6857C70.7914 19.6632 71.8684 20.0118 72.7664 20.6568C73.6645 21.3018 74.3386 22.2112 74.6948 23.2579C74.8955 23.8113 75.0017 24.3945 75.0089 24.9831L74.9978 25.9177Z" fill="#B39A85"/>
<path d="M34.5656 33.6865C33.511 33.6865 32.4996 34.1052 31.7536 34.8505C31.0076 35.5958 30.588 36.6069 30.587 37.6614V46.0176C30.587 47.0728 31.0062 48.0847 31.7523 48.8308C32.4985 49.577 33.5104 49.9962 34.5656 49.9962C35.6208 49.9962 36.6327 49.577 37.3788 48.8308C38.125 48.0847 38.5442 47.0728 38.5442 46.0176V37.6614C38.5432 36.6069 38.1236 35.5958 37.3776 34.8505C36.6316 34.1052 35.6201 33.6865 34.5656 33.6865Z" fill="#B39A85"/>
<path d="M59.3421 33.6865C58.2876 33.6865 57.2762 34.1052 56.5301 34.8505C55.7841 35.5958 55.3645 36.6069 55.3636 37.6614V46.0176C55.3636 47.0728 55.7827 48.0847 56.5288 48.8308C57.2749 49.577 58.287 49.9962 59.3421 49.9962C60.3973 49.9962 61.4093 49.577 62.1554 48.8308C62.9015 48.0847 63.3207 47.0728 63.3207 46.0176V37.6614C63.3197 36.6069 62.9001 35.5958 62.154 34.8505C61.408 34.1052 60.3967 33.6865 59.3421 33.6865Z" fill="#B39A85"/>
</g>
<defs>
<clipPath id="clip0_105_40">
<rect width="67.44" height="67.7983" fill="white" transform="translate(17 17)"/>
</clipPath>
</defs>
</svg>
