<svg width="100" height="100" viewBox="0 0 100 100" fill="none" xmlns="http://www.w3.org/2000/svg">
<rect width="100" height="100" fill="white"/>
<g clip-path="url(#clip0_105_25)">
<path d="M40.736 41.4534L37.9936 49.2796H43.5642L40.825 41.4629C40.7932 41.4629 40.7646 41.4534 40.736 41.4534Z" fill="#B39A85"/>
<path d="M49.9366 13.7275C27.8068 13.7275 9.87003 27.8816 9.87003 45.338C9.87003 56.1548 16.7609 65.699 27.2723 71.4064C27.2723 71.4064 25.8534 78.9686 17.9094 86.2127C17.9094 86.2127 17.1236 87.5934 19.481 87.078C21.8385 86.5626 36.4856 81.3896 42.9503 76.468C42.9503 76.468 47.5537 76.9484 49.9493 76.9484C72.076 76.9484 90.0159 62.7944 90.0159 45.338C90.0159 27.8816 72.0633 13.7275 49.9366 13.7275ZM28.8026 55.2067C28.8006 55.7334 28.5901 56.2378 28.2172 56.6097C28.0343 56.7942 27.8168 56.9406 27.5771 57.0405C27.3374 57.1405 27.0802 57.1919 26.8205 57.1919H26.3878C25.8618 57.1894 25.358 56.9796 24.9858 56.6079C24.6135 56.2362 24.4028 55.7327 24.3995 55.2067V40.8681H20.5118C19.9718 40.8681 19.4539 40.6536 19.0721 40.2718C18.6902 39.8899 18.4757 39.372 18.4757 38.832C18.4757 38.292 18.6902 37.7741 19.0721 37.3923C19.4539 37.0104 19.9718 36.7959 20.5118 36.7959H32.4802C33.0202 36.7959 33.5381 37.0104 33.92 37.3923C34.3018 37.7741 34.5163 38.292 34.5163 38.832C34.5163 39.372 34.3018 39.8899 33.92 40.2718C33.5381 40.6536 33.0202 40.8681 32.4802 40.8681H28.8026V55.2067ZM48.3968 57.0837C47.9019 57.2578 47.3582 57.2282 46.8851 57.0015C46.4121 56.7748 46.0483 56.3695 45.8739 55.8748L44.8591 52.9765H36.702L35.6871 55.8748C35.5005 56.3525 35.1355 56.7392 34.6694 56.9531C34.2032 57.1671 33.6722 57.1916 33.1882 57.0217C32.7043 56.8517 32.3052 56.5005 32.0752 56.042C31.8452 55.5835 31.8022 55.0536 31.9553 54.5641L37.8218 38.832C37.8536 38.7366 37.895 38.6507 37.9332 38.5648C38.175 37.4004 39.3775 36.5096 40.8346 36.5096C42.1453 36.5096 43.2461 37.2349 43.6311 38.2275L43.6501 38.2466L49.6153 54.5641C49.7007 54.8095 49.7371 55.0694 49.7221 55.3289C49.7071 55.5884 49.6411 55.8423 49.528 56.0763C49.4148 56.3103 49.2567 56.5197 49.0626 56.6926C48.8685 56.8654 48.6423 56.9983 48.3968 57.0837V57.0837ZM61.2401 57.0582H53.1084C52.6182 57.0582 52.1481 56.8635 51.8014 56.5169C51.4548 56.1702 51.2601 55.7001 51.2601 55.2099C51.2605 55.0913 51.2722 54.9731 51.2951 54.8567C51.2735 54.7402 51.2618 54.6221 51.2601 54.5036V38.7207C51.2488 38.4235 51.2976 38.127 51.4035 37.8491C51.5095 37.5712 51.6704 37.3175 51.8767 37.1032C52.083 36.889 52.3304 36.7186 52.6041 36.6022C52.8778 36.4858 53.1721 36.4257 53.4695 36.4257C53.767 36.4257 54.0613 36.4858 54.335 36.6022C54.6087 36.7186 54.8561 36.889 55.0624 37.1032C55.2687 37.3175 55.4296 37.5712 55.5356 37.8491C55.6415 38.127 55.6903 38.4235 55.679 38.7207V53.3551H61.2401C61.7304 53.3551 62.2005 53.5498 62.5471 53.8965C62.8938 54.2431 63.0885 54.7133 63.0885 55.2035C63.0885 55.6938 62.8938 56.1639 62.5471 56.5105C62.2005 56.8571 61.7304 57.0519 61.2401 57.0519V57.0582ZM78.6329 56.8006C78.4258 56.9567 78.1899 57.0703 77.9387 57.1351C77.6876 57.1999 77.4262 57.2147 77.1694 57.1783C76.9126 57.142 76.6655 57.0553 76.4422 56.9233C76.2189 56.7914 76.0239 56.6167 75.8682 56.4093L70.0017 48.7102L68.7292 49.9828V54.9999C68.7405 55.2971 68.6916 55.5935 68.5857 55.8714C68.4797 56.1493 68.3188 56.403 68.1125 56.6173C67.9062 56.8316 67.6588 57.002 67.3852 57.1184C67.1115 57.2349 66.8171 57.2948 66.5197 57.2948C66.2222 57.2948 65.9279 57.2349 65.6542 57.1184C65.3805 57.002 65.1331 56.8316 64.9268 56.6173C64.7205 56.403 64.5596 56.1493 64.4537 55.8714C64.3477 55.5935 64.2989 55.2971 64.3102 54.9999V38.7334C64.2989 38.4362 64.3477 38.1398 64.4537 37.8619C64.5596 37.5839 64.7205 37.3302 64.9268 37.116C65.1331 36.9017 65.3805 36.7313 65.6542 36.6148C65.9279 36.4984 66.2222 36.4385 66.5197 36.4385C66.8171 36.4385 67.1115 36.4984 67.3852 36.6148C67.6588 36.7313 67.9062 36.9017 68.1125 37.116C68.3188 37.3302 68.4797 37.5839 68.5857 37.8619C68.6916 38.1398 68.7405 38.4362 68.7292 38.7334V44.4854L75.6678 37.5467C75.8473 37.3621 76.0618 37.2149 76.2987 37.1139C76.5356 37.0128 76.7903 36.9599 77.0478 36.9581C77.3054 36.9563 77.5607 37.0057 77.799 37.1034C78.0373 37.2011 78.2537 37.3453 78.4359 37.5274C78.618 37.7095 78.7621 37.926 78.8598 38.1643C78.9576 38.4026 79.007 38.6579 79.0052 38.9155C79.0034 39.173 78.9504 39.4276 78.8493 39.6645C78.7483 39.9014 78.6012 40.1159 78.4165 40.2954L72.8236 45.882L79.0274 54.0264C79.1844 54.2342 79.2987 54.4709 79.3638 54.7231C79.429 54.9752 79.4437 55.2377 79.407 55.4955C79.3704 55.7533 79.2831 56.0014 79.1502 56.2254C79.0174 56.4493 78.8416 56.6448 78.6329 56.8006V56.8006Z" fill="#B39A85"/>
<path d="M37.9936 49.2796L40.736 41.4534C40.7646 41.4534 40.7932 41.4534 40.825 41.4534L43.5642 49.27L37.9936 49.2796Z" fill="#B39A85"/>
</g>
<defs>
<clipPath id="clip0_105_25">
<rect width="80.13" height="73.465" fill="white" transform="translate(9.87 13.7275)"/>
</clipPath>
</defs>
</svg>
