<svg width="72" height="71" viewBox="0 0 72 71" fill="none" xmlns="http://www.w3.org/2000/svg">
<path d="M60.33 0H11.34C5.07709 0 0 5.07709 0 11.34V59.66C0 65.9229 5.07709 71 11.34 71H60.33C66.5929 71 71.67 65.9229 71.67 59.66V11.34C71.67 5.07709 66.5929 0 60.33 0Z" fill="#01C73C"/>
<path d="M56.6499 21.4399L52.3599 17.4899C51.8881 16.97 51.3122 16.5553 50.6695 16.2727C50.0269 15.9902 49.3319 15.8461 48.6299 15.8499H20.0799C18.7273 15.8499 17.4301 16.3872 16.4736 17.3437C15.5172 18.3001 14.9799 19.5973 14.9799 20.9499V52.4499C14.9326 53.1512 15.1037 53.8499 15.4699 54.4499C15.5795 54.6079 15.7147 54.7464 15.8699 54.8599L19.9299 58.6199C19.9917 58.6851 20.0586 58.7453 20.1299 58.7999L20.3399 58.9399C20.5895 59.0706 20.8682 59.1359 21.1499 59.1299C21.7057 59.1005 22.2424 58.917 22.6999 58.5999L27.4899 53.6999C28.4899 52.4699 31.2399 52.1999 32.2099 52.1899H52.9299C53.6005 52.1912 54.2647 52.0603 54.8846 51.8046C55.5046 51.5489 56.068 51.1734 56.5426 50.6997C57.0172 50.226 57.3938 49.6633 57.6507 49.0439C57.9076 48.4245 58.0399 47.7605 58.0399 47.0899V24.9399C58.0504 23.6367 57.5517 22.3809 56.6499 21.4399ZM52.0399 21.5399V43.1199C52.0399 44.0217 51.6817 44.8865 51.0441 45.5241C50.4064 46.1617 49.5416 46.5199 48.6399 46.5199H27.9299C27.4999 46.5199 23.6099 46.5799 21.9299 48.5899L20.9299 49.5899L19.2299 51.3299L17.3299 53.2799C17.1741 53.3836 16.9958 53.4487 16.8099 53.4699C16.8099 53.4699 16.6199 53.2899 16.6199 52.4699V20.9399C16.6199 20.0382 16.9781 19.1734 17.6157 18.5358C18.2533 17.8981 19.1181 17.5399 20.0199 17.5399H48.6399C49.3468 17.5405 50.0357 17.7627 50.6098 18.1753C51.1838 18.5879 51.614 19.1701 51.8399 19.8399C51.9686 20.1925 52.0363 20.5646 52.0399 20.9399V21.5399Z" fill="white"/>
<path d="M26.2002 26.5C25.865 26.5 25.5331 26.5663 25.2236 26.6952C24.9141 26.8241 24.6332 27.013 24.3971 27.251C24.161 27.489 23.9743 27.7714 23.8478 28.0818C23.7213 28.3923 23.6576 28.7248 23.6602 29.06V34.4C23.7008 35.0474 23.9866 35.655 24.4595 36.0991C24.9323 36.5432 25.5566 36.7904 26.2052 36.7904C26.8539 36.7904 27.4782 36.5432 27.951 36.0991C28.4238 35.655 28.7096 35.0474 28.7502 34.4V29.06C28.7516 28.7243 28.6866 28.3916 28.559 28.0811C28.4314 27.7706 28.2438 27.4883 28.0069 27.2504C27.77 27.0126 27.4884 26.8238 27.1784 26.6951C26.8684 26.5663 26.5359 26.5 26.2002 26.5Z" fill="white"/>
<path d="M42.0401 26.5C41.7048 26.5 41.3729 26.5663 41.0634 26.6952C40.7539 26.8241 40.473 27.013 40.2369 27.251C40.0008 27.489 39.8141 27.7714 39.6877 28.0818C39.5612 28.3923 39.4974 28.7248 39.5001 29.06V34.4C39.5001 34.7336 39.5658 35.0638 39.6934 35.372C39.8211 35.6802 40.0082 35.9602 40.244 36.1961C40.4799 36.4319 40.7599 36.619 41.0681 36.7467C41.3762 36.8743 41.7065 36.94 42.0401 36.94C42.3736 36.94 42.7039 36.8743 43.0121 36.7467C43.3203 36.619 43.6003 36.4319 43.8361 36.1961C44.072 35.9602 44.2591 35.6802 44.3867 35.372C44.5144 35.0638 44.5801 34.7336 44.5801 34.4V29.06C44.5827 28.7248 44.519 28.3923 44.3925 28.0818C44.266 27.7714 44.0794 27.489 43.8432 27.251C43.6071 27.013 43.3262 26.8241 43.0167 26.6952C42.7073 26.5663 42.3753 26.5 42.0401 26.5Z" fill="white"/>
</svg>
