<svg width="72" height="71" viewBox="0 0 72 71" fill="none" xmlns="http://www.w3.org/2000/svg">
<path d="M60.33 0H11.34C5.07709 0 0 5.07709 0 11.34V59.66C0 65.9229 5.07709 71 11.34 71H60.33C66.5929 71 71.67 65.9229 71.67 59.66V11.34C71.67 5.07709 66.5929 0 60.33 0Z" fill="#FAE300"/>
<path d="M36.4944 16.8479C24.6224 16.8479 15 24.4545 15 33.843C15 39.9572 19.0761 45.303 25.2015 48.2988C24.756 49.9805 23.5755 54.3796 23.3416 55.3263C23.0521 56.4957 23.776 56.4845 24.2437 56.1615C24.6112 55.9165 30.1352 52.1634 32.5185 50.5374C33.8104 50.7267 35.1469 50.8269 36.5056 50.8269C48.3776 50.8269 58 43.2203 58 33.8318C58 24.4545 48.3665 16.8479 36.4944 16.8479Z" fill="#303030"/>
<path d="M27.8523 28.8423H21.5599C20.9696 28.8423 20.4907 29.3212 20.4907 29.9114C20.4907 30.5017 20.9696 30.9806 21.5599 30.9806H23.6091V38.5092C23.6091 38.7876 23.7205 39.0549 23.9209 39.2443C24.1103 39.4336 24.3775 39.545 24.656 39.545H24.8898C25.1683 39.545 25.4356 39.4336 25.6249 39.2443C25.8254 39.0438 25.9367 38.7765 25.9367 38.5092V30.9806H27.8634C28.4537 30.9806 28.9326 30.5017 28.9326 29.9114C28.9214 29.3212 28.4425 28.8423 27.8523 28.8423Z" fill="#FAE300"/>
<path d="M42.9541 37.5404H40.0362V29.8448C40.0362 29.1988 39.5128 28.6865 38.878 28.6865C38.232 28.6865 37.7197 29.21 37.7197 29.8448V38.1307C37.7197 38.1975 37.7309 38.2532 37.742 38.32C37.7309 38.3757 37.7197 38.4425 37.7197 38.5094C37.7197 39.0439 38.1541 39.4783 38.6886 39.4783H42.9541C43.4887 39.4783 43.923 39.0439 43.923 38.5094C43.923 37.9748 43.4887 37.5404 42.9541 37.5404Z" fill="#FAE300"/>
<path d="M52.2979 37.8968L49.0348 33.6202L51.975 30.68C52.3759 30.2791 52.3759 29.6331 51.975 29.2322C51.574 28.8313 50.9281 28.8313 50.5271 29.2322L46.8853 32.874V29.8559C46.8853 29.2099 46.3619 28.6976 45.7271 28.6976C45.0811 28.6976 44.5688 29.2211 44.5688 29.8559V38.398C44.5688 39.0439 45.0923 39.5562 45.7271 39.5562C46.373 39.5562 46.8853 39.0328 46.8853 38.398V35.7585L47.5424 35.1014L50.6274 39.1441C50.9726 39.6008 51.6186 39.701 52.0752 39.3558C52.5541 38.9994 52.6432 38.3534 52.2979 37.8968Z" fill="#FAE300"/>
<path d="M36.8391 38.1753L33.7096 29.5998L33.6985 29.5886C33.498 29.0652 32.9189 28.6865 32.2284 28.6865C31.4599 28.6865 30.8363 29.1543 30.7026 29.7668C30.6804 29.8114 30.6581 29.8559 30.6469 29.9116L27.562 38.1753C27.3727 38.721 27.6622 39.3112 28.1968 39.5006C28.7425 39.6899 29.3328 39.4003 29.5221 38.8658L30.0567 37.34H34.3444L34.879 38.8658C35.0683 39.4115 35.6586 39.6899 36.2043 39.5006C36.75 39.3001 37.0285 38.7098 36.8391 38.1753ZM30.7472 35.391L32.1839 31.2814C32.195 31.2814 32.2173 31.2814 32.2284 31.2814L33.6651 35.391H30.7472Z" fill="#FAE300"/>
</svg>
