<?xml version="1.0" encoding="utf-8"?>
<!-- Generator: Adobe Illustrator 23.0.4, SVG Export Plug-In . SVG Version: 6.00 Build 0)  -->
<svg version="1.1" id="Layer_1" xmlns="http://www.w3.org/2000/svg" xmlns:xlink="http://www.w3.org/1999/xlink" x="0px" y="0px"
	 viewBox="0 0 24 24" style="enable-background:new 0 0 24 24;" xml:space="preserve">
<style type="text/css">
	.st0{fill:#00468C;}
	.st1{fill:#FFFFFF;}
</style>
<circle class="st0" cx="12" cy="11.9" r="11.9"/>
<g>
	<path class="st1" d="M14.8,17.2H6.5V6.3h8.3v0.6h0.5V5.7c0-0.5-0.4-0.8-0.8-0.8H6.8C6.4,4.8,6,5.2,6,5.7v12.5C6,18.6,6.4,19,6.8,19
		h7.6c0.5,0,0.8-0.4,0.8-0.8V13l-0.5,0.5V17.2z M9.8,5.3h1.8c0.1,0,0.2,0.1,0.2,0.2c0,0.1-0.1,0.2-0.2,0.2H9.8
		c-0.1,0.1-0.3,0-0.3-0.1C9.5,5.4,9.7,5.3,9.8,5.3z M8.7,18.5c-0.2,0-0.4-0.2-0.4-0.4c0-0.2,0.2-0.4,0.4-0.4C8.8,17.8,9,18,9,18.1
		S8.8,18.5,8.7,18.5z M10.7,18.5c-0.2,0-0.4-0.2-0.4-0.4c0-0.2,0.2-0.4,0.4-0.4S11,18,11,18.1S10.9,18.5,10.7,18.5z M12.7,18.5
		c-0.2,0-0.4-0.2-0.4-0.4c0-0.2,0.2-0.4,0.4-0.4c0.2,0,0.4,0.2,0.4,0.4S12.9,18.5,12.7,18.5z"/>
	<path class="st1" d="M18.5,7.3h-5c-0.5,0-0.8,0.4-0.8,0.8v3.1c0,0.5,0.4,0.8,0.8,0.8h0.2v1.4c0,0.2,0.1,0.3,0.2,0.3s0.1,0,0.2-0.1
		l1.6-1.5h2.8c0.5,0,0.8-0.4,0.8-0.8V8.2C19.3,7.7,18.9,7.3,18.5,7.3z M18.8,11.3c0,0.3-0.2,0.5-0.5,0.5h-2.8h-0.2l-0.1,0.1
		l-1.2,1.1v-0.8v-0.5h-0.5h-0.2c-0.3,0-0.5-0.2-0.5-0.5V8.2c0-0.3,0.2-0.5,0.5-0.5h5c0.3,0,0.5,0.2,0.5,0.5L18.8,11.3L18.8,11.3z"/>
</g>
</svg>
