<?xml version="1.0" encoding="utf-8"?>
<!-- Generator: Adobe Illustrator 23.0.4, SVG Export Plug-In . SVG Version: 6.00 Build 0)  -->
<svg version="1.0" id="Layer_1" xmlns="http://www.w3.org/2000/svg" xmlns:xlink="http://www.w3.org/1999/xlink" x="0px" y="0px"
	 viewBox="0 0 60 60" style="enable-background:new 0 0 60 60;" xml:space="preserve">
<style type="text/css">
	.st0{fill:#FF6600;}
	.st1{fill:#FFFFFF;}
</style>
<circle class="st0" cx="30" cy="30" r="30"/>
<g>
	<polygon class="st1" points="27.4,28.8 26.4,25.6 25.3,28.8 	"/>
	<path class="st1" d="M30,13.6c-9.8,0-17.8,6.3-17.8,14c0,5.1,3.4,9.5,8.4,12c-0.4,1.4-1.3,5.1-1.5,5.8c-0.3,1,0.4,1,0.7,0.7
		c0.3-0.2,4.9-3.3,6.8-4.6c1.1,0.2,2.1,0.3,3.3,0.3c9.8,0,17.8-6.3,17.8-14C47.8,20,39.8,13.6,30,13.6z M36.6,24.1
		c0-0.4,0.5-0.6,1-0.6c0.4,0,0.9,0.2,0.9,0.5c0,1,0,2.7,0,2.7s2.8-2.8,3.1-3.1c0.4-0.4,1.7,0.9,1.2,1.2c-0.7,0.7-2.5,2.6-2.5,2.6
		l2.6,3.4c0.5,0.6-1.1,1.9-1.5,1.2L39,28.7l-0.5,0.4c0,0,0,1.7,0,2.5c0,0.7-1.9,0.7-1.9,0C36.5,31.2,36.6,24.8,36.6,24.1z
		 M27.5,24.1c0.4,0.7,2.1,5.7,2.7,7c0.4,1-1.4,1.6-1.8,0.7C28,30.7,28,30.6,28,30.6h-3.4L24.3,32c-0.4,0.9-2.1,0.2-1.7-0.7
		c0.5-1.2,2.2-6,2.7-7c0.2-0.4,0.6-0.5,1.1-0.5C26.8,23.5,27.4,23.8,27.5,24.1z M23,23.2c1.2,0,1.2,2,0,2c-1.2,0-1.9,0.2-1.9,0.2
		v6.2c0,0.9-2,0.8-2-0.1c0-1.2,0-6.3,0-6.3h-1.9c-1.1,0-1.1-1.9,0-1.9L23,23.2L23,23.2z M30.9,31.2c0,0,0-5.2,0-6.8
		c0-0.5,0.5-0.9,1-0.9c0.5,0,1,0.3,1,0.9c0,1.2,0,6,0,6s1.6,0,2.5,0s0.9,1.9,0,1.9s-2.8,0-3.7,0C30.8,32.2,30.9,31.2,30.9,31.2z"/>
</g>
</svg>
