<svg width="50" height="15" viewBox="0 0 50 15" fill="none" xmlns="http://www.w3.org/2000/svg">
<path d="M1.74162 14.719H0V0.367435L1.74162 0V14.719ZM6.3933 4.30115L7.76014 5.27378L4.40917 9.40202L8.28924 13.9625L6.94444 14.9784L2.35891 9.48847L6.3933 4.30115Z" fill="white"/>
<path d="M9.83252 11.9959C9.83252 10.9584 10.1853 10.1803 10.8907 9.63998C11.5962 9.09964 12.6103 8.84027 13.9551 8.84027H15.9613V8.19186C15.9613 6.61405 15.2558 5.83595 13.8449 5.83595C13.3819 5.83595 12.9189 5.90079 12.4119 6.03048C11.9048 6.16016 11.4639 6.31146 11.045 6.48437L10.538 5.27399C11.045 4.99301 11.6182 4.77687 12.2135 4.60396C12.8087 4.45267 13.4039 4.36621 13.9551 4.36621C16.4022 4.36621 17.6368 5.64143 17.6368 8.21347V14.7192H16.3581L16.1376 13.6169C15.6306 14.0276 15.0574 14.3518 14.4842 14.5679C13.889 14.7841 13.3378 14.8921 12.8087 14.8921C11.8828 14.8921 11.1553 14.6328 10.6482 14.114C10.0971 13.6169 9.83252 12.9037 9.83252 11.9959ZM13.1174 13.5305C13.3599 13.5305 13.6024 13.5089 13.8669 13.444C14.1315 13.3792 14.374 13.2927 14.6385 13.2063C14.9031 13.0982 15.1456 12.9901 15.366 12.8388C15.5865 12.6875 15.7849 12.5362 15.9613 12.3849V10.0074H14.1535C13.2276 10.0074 12.5662 10.1587 12.1473 10.4613C11.7285 10.7639 11.508 11.261 11.508 11.931C11.508 12.9901 12.0371 13.5305 13.1174 13.5305Z" fill="white"/>
<path d="M22.4648 14.719H20.7231V0.367435L22.4648 0V14.719ZM27.1385 4.30115L28.5053 5.27378L25.1544 9.40202L29.0344 13.9625L27.6896 14.9784L23.1041 9.48847L27.1385 4.30115Z" fill="white"/>
<path d="M30.5774 11.9959C30.5774 10.9584 30.9301 10.1803 31.6356 9.63999C32.3411 9.09964 33.3552 8.84028 34.7 8.84028H36.7061V8.19186C36.7061 6.61405 36.0007 5.83595 34.5897 5.83595C34.1268 5.83595 33.6638 5.90079 33.1568 6.03048C32.6497 6.16016 32.2088 6.31146 31.7899 6.48437L31.2829 5.27399C31.7899 4.99301 32.3631 4.77687 32.9583 4.60396C33.5536 4.45267 34.1488 4.36621 34.722 4.36621C37.1691 4.36621 38.4037 5.64143 38.4037 8.21347V14.7192H37.125L36.9266 13.5953C36.4195 14.006 35.8463 14.3302 35.2732 14.5463C34.6779 14.7625 34.1268 14.8705 33.5977 14.8705C32.6717 14.8705 31.9442 14.6112 31.4372 14.0924C30.8419 13.6169 30.5774 12.9037 30.5774 11.9959ZM33.8402 13.5305C34.0827 13.5305 34.3252 13.5089 34.5897 13.444C34.8543 13.3792 35.0968 13.2927 35.3613 13.2063C35.6259 13.0982 35.8684 12.9901 36.0889 12.8388C36.3093 12.6875 36.5077 12.5362 36.6841 12.3849V10.0074H34.8763C33.9504 10.0074 33.289 10.1587 32.8702 10.4613C32.4513 10.7639 32.2308 11.261 32.2308 11.9311C32.2308 12.9901 32.782 13.5305 33.8402 13.5305Z" fill="white"/>
<path d="M45.3703 4.40918C46.8033 4.40918 47.9496 4.86307 48.7653 5.79246C49.581 6.70025 49.9999 8.01869 49.9999 9.72618C49.9999 11.4121 49.6031 12.7089 48.7874 13.6167C47.9717 14.5245 46.8474 14.9783 45.3923 14.9783C43.9593 14.9783 42.813 14.5245 41.9973 13.6167C41.1816 12.7089 40.7627 11.4121 40.7627 9.72618C40.7627 8.01869 41.1816 6.70025 41.9973 5.79246C42.813 4.86307 43.9373 4.40918 45.3703 4.40918ZM45.3703 5.77085C44.4664 5.77085 43.7609 6.09506 43.2759 6.76509C42.7909 7.43512 42.5484 8.40774 42.5484 9.70457C42.5484 10.9798 42.7909 11.9524 43.2759 12.6008C43.7609 13.2492 44.4664 13.5734 45.3703 13.5734C46.2962 13.5734 47.0017 13.2492 47.4867 12.6008C47.9717 11.9524 48.2142 10.9798 48.2142 9.70457C48.2142 8.40774 47.9717 7.43512 47.4867 6.76509C47.0017 6.11667 46.2962 5.77085 45.3703 5.77085Z" fill="white"/>
</svg>
