<svg width="20" height="18" viewBox="0 0 20 18" fill="none" xmlns="http://www.w3.org/2000/svg">
<path d="M12.6556 13.6896C8.81631 13.7735 5.63439 10.7315 5.55047 6.88869C5.49102 4.29769 6.8617 2.0074 8.94219 0.762607C8.76037 0.755614 8.57854 0.752117 8.39672 0.755614C3.6553 0.860512 -0.103572 4.78722 0.00132686 9.53214C0.102729 14.2701 4.03293 18.0324 8.77435 17.9275C12.4003 17.8471 15.4459 15.5323 16.6383 12.3294C15.5193 13.1546 14.1487 13.6581 12.6556 13.6896Z" fill="white"/>
<path d="M12.8339 1.87445L13.5997 3.43045L15.32 3.67871L14.0752 4.89204L14.3689 6.60538L12.8339 5.79416L11.2954 6.60538L11.5891 4.89204L10.3443 3.67871L12.0647 3.43045L12.8339 1.87445Z" fill="white"/>
<path d="M17.8306 5.38516L18.3516 6.43765L19.5125 6.60548L18.6698 7.42369L18.8691 8.58107L17.8306 8.0356L16.7956 8.58107L16.9914 7.42369L16.1522 6.60548L17.3131 6.43765L17.8306 5.38516Z" fill="white"/>
</svg>
