<svg width="20" height="17" viewBox="0 0 20 17" fill="none" xmlns="http://www.w3.org/2000/svg">
<path d="M13.8005 7.60235C13.6743 7.49532 13.5146 7.43622 13.3501 7.43622C13.1456 7.43622 12.9539 7.52567 12.8213 7.68062L9.13291 12.008L6.83744 9.51444C6.70645 9.37227 6.51955 9.2908 6.32627 9.2908C6.15215 9.2908 5.98442 9.3563 5.85503 9.47451C5.57389 9.73329 5.55632 10.1742 5.8151 10.4553L8.6425 13.5239C8.77349 13.6661 8.96039 13.7476 9.15367 13.7476C9.15527 13.7476 9.16645 13.7476 9.16645 13.7476C9.36453 13.7444 9.55302 13.6549 9.68082 13.5032L13.8788 8.58156C14.1264 8.28923 14.0912 7.84995 13.8005 7.60235Z" fill="white"/>
<path d="M17.1072 16.6085H2.57077C1.85514 16.6085 1.27368 16.027 1.27368 15.3114V5.21419C1.27368 4.86116 1.55962 4.57523 1.91264 4.57523H17.7669C18.1199 4.57523 18.4058 4.86116 18.4058 5.21419V15.3114C18.4042 16.027 17.8228 16.6085 17.1072 16.6085ZM2.55001 5.85315V15.3114C2.55001 15.321 2.55959 15.3305 2.56918 15.3305H17.1056C17.1151 15.3305 17.1247 15.321 17.1247 15.3114V5.85315H2.55001Z" fill="white"/>
<path d="M18.3739 5.85317H1.30243C0.859953 5.85317 0.49894 5.49375 0.49894 5.04967V2.58807C0.49894 2.14559 0.859953 1.78458 1.30243 1.78458H18.3739C18.8164 1.78458 19.1774 2.14559 19.1774 2.58807V5.04967C19.1774 5.49375 18.8164 5.85317 18.3739 5.85317ZM1.77686 4.57524H17.8995V3.0625H1.77686V4.57524Z" fill="white"/>
<path d="M4.62344 3.92828C4.27041 3.92828 3.98447 3.64235 3.98447 3.28932V1.3932C3.98447 1.04018 4.27041 0.754242 4.62344 0.754242C4.97646 0.754242 5.2624 1.04018 5.2624 1.3932V3.28932C5.2624 3.64235 4.97646 3.92828 4.62344 3.92828Z" fill="white"/>
<path d="M8.13614 3.92828C7.78311 3.92828 7.49717 3.64235 7.49717 3.28932V1.3932C7.49717 1.04018 7.78311 0.754242 8.13614 0.754242C8.48916 0.754242 8.7751 1.04018 8.7751 1.3932V3.28932C8.7751 3.64235 8.48916 3.92828 8.13614 3.92828Z" fill="white"/>
<path d="M11.6488 3.92828C11.2958 3.92828 11.0099 3.64235 11.0099 3.28932V1.3932C11.0099 1.04018 11.2958 0.754242 11.6488 0.754242C12.0019 0.754242 12.2878 1.04018 12.2878 1.3932V3.28932C12.2878 3.64235 12.0019 3.92828 11.6488 3.92828Z" fill="white"/>
<path d="M15.1615 3.92828C14.8085 3.92828 14.5226 3.64235 14.5226 3.28932V1.3932C14.5226 1.04018 14.8085 0.754242 15.1615 0.754242C15.5145 0.754242 15.8005 1.04018 15.8005 1.3932V3.28932C15.8005 3.64235 15.5145 3.92828 15.1615 3.92828Z" fill="white"/>
</svg>
