<svg width="150" height="150" viewBox="0 0 150 150" fill="none" xmlns="http://www.w3.org/2000/svg">
<path d="M62.8786 144.969C57.4533 144.969 52.974 140.843 52.4041 135.577C50.5577 137.116 48.187 138.017 45.6453 138.017C39.8325 138.017 35.1139 133.287 35.1139 127.485V122.311H31.592C25.7792 122.311 21.0606 117.581 21.0606 111.779C21.0606 109.089 22.0636 106.605 23.7618 104.713C19.2939 103.493 16 99.4013 16 94.5459C16 89.5765 19.4649 85.3936 24.1037 84.288C22.2231 82.3846 21.0606 79.7745 21.0606 76.8909C21.0606 71.0781 25.7906 66.3595 31.592 66.3595H35.1139V61.1849C35.1139 55.3721 39.8439 50.6535 45.6453 50.6535C48.187 50.6535 50.5577 51.5539 52.4041 53.0926C52.974 47.8155 57.4533 43.7009 62.8786 43.7009C68.6914 43.7009 73.41 48.431 73.41 54.2324C73.41 55.1784 72.6464 55.942 71.7004 55.942C70.7544 55.942 69.9907 55.1784 69.9907 54.2324C69.9907 50.3116 66.7994 47.1202 62.8786 47.1202C58.9578 47.1202 55.7664 50.3116 55.7664 54.2324V58.5065C55.7664 59.3499 55.151 60.068 54.3189 60.1933C53.4869 60.3187 52.6891 59.8286 52.4269 59.0194C51.4809 56.056 48.7569 54.0614 45.6453 54.0614C41.7245 54.0614 38.5332 57.2527 38.5332 61.1735V68.0577C38.5332 69.0037 37.7695 69.7674 36.8235 69.7674H31.592C27.6712 69.7674 24.4799 72.9587 24.4799 76.8795C24.4799 80.8003 27.6712 83.9917 31.592 83.9917C32.538 83.9917 33.3017 84.7553 33.3017 85.7013C33.3017 86.6473 32.538 87.411 31.592 87.411H26.5314C22.6106 87.4224 19.4193 90.6137 19.4193 94.5459C19.4193 98.4667 22.6106 101.658 26.5314 101.658H28.9136C29.757 101.658 30.475 102.274 30.6004 103.106C30.7258 103.938 30.2357 104.747 29.4264 104.998C26.4631 105.944 24.4799 108.656 24.4799 111.768C24.4799 115.689 27.6712 118.88 31.592 118.88H36.8235C37.7695 118.88 38.5332 119.644 38.5332 120.59V127.474C38.5332 131.395 41.7245 134.586 45.6453 134.586C48.7569 134.586 51.4809 132.591 52.4269 129.639C52.6777 128.83 53.4869 128.34 54.3189 128.465C55.151 128.591 55.7664 129.309 55.7664 130.152V134.426C55.7664 138.347 58.9578 141.538 62.8786 141.538C66.7994 141.538 69.9907 138.347 69.9907 134.426V63.1453C69.9907 62.1993 70.7544 61.4357 71.7004 61.4357C72.6464 61.4357 73.41 62.1993 73.41 63.1453V134.438C73.4214 140.239 68.6914 144.969 62.8786 144.969Z" fill="#333333"/>
<path d="M28.0702 105.225C28.0018 105.225 27.9562 105.225 27.9448 105.225C26.9988 105.203 26.258 104.416 26.2808 103.47C26.3036 102.524 27.1014 101.795 28.036 101.806C28.1272 101.84 32.2418 101.84 34.6923 99.2417C36.1626 97.6802 36.8008 95.4007 36.5615 92.4715C36.4817 91.5255 37.1883 90.7049 38.1344 90.6365C39.069 90.5681 39.901 91.2633 39.9694 92.2094C40.2771 96.1643 39.3311 99.3215 37.1542 101.624C33.8716 105.066 28.9478 105.225 28.0702 105.225Z" fill="#333333"/>
<path d="M41.2916 112.486C41.1891 112.486 41.0751 112.474 40.9611 112.452C40.0379 112.269 39.4224 111.38 39.6048 110.446C40.7787 104.314 36.402 102.593 35.8891 102.41C35.0001 102.103 34.5328 101.134 34.8292 100.245C35.1369 99.3558 36.0829 98.8771 36.9833 99.1734C39.6732 100.074 44.3804 103.71 42.9557 111.095C42.8075 111.916 42.0895 112.486 41.2916 112.486Z" fill="#333333"/>
<path d="M53.3845 134.096C53.1451 134.096 52.9058 134.05 52.6778 133.948C51.8116 133.56 51.4355 132.546 51.823 131.691C51.9028 131.497 60.2459 112.531 49.4637 102.023C48.7912 101.362 48.7684 100.279 49.4295 99.6065C50.0906 98.934 51.1733 98.9113 51.8458 99.5723C64.349 111.756 55.3221 132.227 54.9346 133.093C54.661 133.72 54.0341 134.096 53.3845 134.096Z" fill="#333333"/>
<path d="M47.6161 79.1932C47.5705 79.1932 47.5135 79.1932 47.4679 79.1932C38.5778 79.0906 35.66 71.0211 35.3522 66.7583C35.2838 65.8123 35.9905 65.0031 36.9365 64.9347C37.8825 64.8435 38.6917 65.573 38.7601 66.519C38.7943 66.9065 39.558 75.6827 47.5021 75.7739C49.6791 75.8081 51.6395 75.1014 53.7367 73.5741C54.5003 73.0157 55.5717 73.1866 56.1302 73.9503C56.6887 74.7139 56.5177 75.7853 55.754 76.3438C53.1098 78.2472 50.4541 79.1932 47.6161 79.1932Z" fill="#333333"/>
<path d="M55.048 108.246C54.3983 108.246 53.7714 107.87 53.4865 107.243C53.099 106.388 53.4751 105.374 54.3299 104.986C54.6832 104.815 62.6274 101.02 60.1883 92.0271C59.9376 91.1153 60.4847 90.1806 61.3851 89.9299C62.2969 89.6792 63.2315 90.2148 63.4822 91.1267C66.0581 100.61 59.5387 106.377 55.7318 108.098C55.5153 108.2 55.2759 108.246 55.048 108.246Z" fill="#333333"/>
<path d="M47.2639 91.0924C47.1043 91.0924 46.9333 91.0696 46.7738 91.024C45.8734 90.7505 45.3605 89.7931 45.634 88.8926C48.1073 80.7091 43.6964 78.7373 43.6622 78.7259C42.796 78.3612 42.3857 77.3582 42.7504 76.4806C43.1151 75.6144 44.1181 75.204 44.9957 75.5688C45.0641 75.603 52.2675 78.7943 48.9165 89.8842C48.6772 90.6137 47.9933 91.0924 47.2639 91.0924Z" fill="#333333"/>
<path d="M87.1327 144.969C81.3199 144.969 76.6012 140.239 76.6012 134.438V118.321C76.6012 117.375 77.3649 116.612 78.3109 116.612C79.2569 116.612 80.0205 117.375 80.0205 118.321V134.438C80.0205 138.359 83.2119 141.55 87.1327 141.55C91.0535 141.55 94.2448 138.359 94.2448 134.438V130.164C94.2448 129.32 94.8603 128.602 95.6923 128.477C96.5244 128.351 97.3336 128.841 97.5843 129.651C98.5303 132.614 101.254 134.597 104.366 134.597C108.287 134.597 111.478 131.406 111.478 127.485V120.601C111.478 119.655 112.242 118.891 113.188 118.891H118.419C122.34 118.891 125.531 115.7 125.531 111.779C125.531 108.668 123.537 105.944 120.585 105.009C119.776 104.758 119.285 103.949 119.411 103.117C119.536 102.285 120.254 101.669 121.098 101.669H123.48C127.401 101.669 130.592 98.4781 130.592 94.5573C130.592 90.6365 127.401 87.4452 123.48 87.4452H118.408C117.462 87.4452 116.698 86.6815 116.698 85.7355C116.698 84.7895 117.462 84.0259 118.408 84.0259C122.329 84.0259 125.52 80.8345 125.52 76.9137C125.52 72.9929 122.329 69.8016 118.408 69.8016H113.176C112.23 69.8016 111.467 69.0379 111.467 68.0919V61.2077C111.467 57.2869 108.275 54.0956 104.355 54.0956C101.243 54.0956 98.5189 56.0902 97.5729 59.0536C97.3222 59.8628 96.513 60.3529 95.6809 60.2275C94.8489 60.1022 94.2334 59.3841 94.2334 58.5407V54.2666C94.2334 50.3458 91.0421 47.1544 87.1213 47.1544C83.2005 47.1544 80.0091 50.3458 80.0091 54.2666V110.297C80.0091 111.243 79.2455 112.007 78.2995 112.007C77.3535 112.007 76.5898 111.243 76.5898 110.297V54.2324C76.5898 48.4196 81.3199 43.7009 87.1213 43.7009C92.5466 43.7009 97.0259 47.8269 97.5957 53.0926C99.4422 51.5539 101.813 50.6535 104.355 50.6535C110.167 50.6535 114.886 55.3835 114.886 61.1849V66.3595H118.408C124.221 66.3595 128.939 71.0895 128.939 76.8909C128.939 79.7745 127.777 82.3846 125.896 84.288C130.535 85.3822 134 89.5651 134 94.5459C134 99.4013 130.706 103.493 126.227 104.713C127.936 106.605 128.928 109.089 128.928 111.779C128.928 117.592 124.198 122.311 118.396 122.311H114.875V127.485C114.875 133.287 110.145 138.017 104.343 138.017C101.801 138.017 99.4308 137.116 97.5843 135.577C97.0373 140.843 92.558 144.969 87.1327 144.969Z" fill="#FF6600"/>
<path d="M121.942 105.225C121.064 105.225 116.14 105.066 112.858 101.612C110.681 99.31 109.723 96.1529 110.042 92.1979C110.122 91.2519 110.931 90.5566 111.877 90.625C112.823 90.6934 113.519 91.5254 113.45 92.46C113.222 95.4006 113.849 97.6916 115.342 99.253C117.804 101.84 121.942 101.806 121.976 101.806C121.987 101.806 122.01 101.806 122.021 101.806C122.945 101.806 123.708 102.536 123.731 103.47C123.754 104.416 123.013 105.203 122.067 105.225C122.056 105.225 122.01 105.225 121.942 105.225Z" fill="#FF6600"/>
<path d="M108.72 112.486C107.922 112.486 107.204 111.916 107.044 111.095C105.619 103.71 110.327 100.074 113.016 99.1733C113.917 98.877 114.886 99.3557 115.182 100.256C115.478 101.145 115 102.114 114.111 102.41C113.598 102.593 109.221 104.325 110.406 110.446C110.589 111.369 109.973 112.269 109.05 112.452C108.936 112.474 108.822 112.486 108.72 112.486Z" fill="#FF6600"/>
<path d="M96.6266 134.096C95.9769 134.096 95.3501 133.72 95.0651 133.093C94.6776 132.227 85.6506 111.756 98.1539 99.5724C98.8263 98.9113 99.9091 98.9227 100.57 99.6065C101.231 100.279 101.22 101.362 100.536 102.023C89.7538 112.532 98.0969 131.497 98.1767 131.691C98.5642 132.546 98.1767 133.56 97.3219 133.948C97.1053 134.05 96.8659 134.096 96.6266 134.096Z" fill="#FF6600"/>
<path d="M102.395 79.1932C99.5566 79.1932 96.8895 78.2586 94.2566 76.3324C93.493 75.7739 93.3334 74.7026 93.8805 73.9389C94.439 73.1753 95.5104 73.0043 96.274 73.5628C98.3256 75.0673 100.275 75.7625 102.395 75.7625C102.429 75.7625 102.474 75.7625 102.509 75.7625C110.464 75.6714 111.216 66.8838 111.251 66.5076C111.319 65.573 112.14 64.855 113.086 64.9348C114.02 65.0032 114.738 65.8238 114.67 66.7584C114.374 71.0097 111.456 79.0907 102.554 79.1932C102.497 79.1932 102.44 79.1932 102.395 79.1932Z" fill="#FF6600"/>
<path d="M94.9634 108.246C94.724 108.246 94.4847 108.2 94.2567 108.098C90.4499 106.377 83.9304 100.61 86.5063 91.1267C86.757 90.2148 87.6916 89.6792 88.6035 89.9299C89.5153 90.1806 90.051 91.1153 89.8002 92.0271C87.3497 101.1 95.3281 104.827 95.67 104.986C96.5248 105.374 96.9124 106.388 96.5248 107.254C96.2399 107.881 95.613 108.246 94.9634 108.246Z" fill="#FF6600"/>
<path d="M102.747 91.0923C102.018 91.0923 101.334 90.6136 101.106 89.8728C97.7552 78.7828 104.947 75.5915 105.027 75.5573C105.893 75.1926 106.896 75.6029 107.272 76.4691C107.637 77.3353 107.238 78.3269 106.383 78.703C106.155 78.8056 101.972 80.8914 104.389 88.8812C104.662 89.7816 104.149 90.739 103.249 91.0125C103.078 91.0695 102.918 91.0923 102.747 91.0923Z" fill="#FF6600"/>
<path d="M47.0016 34.047C46.0556 34.047 45.292 33.2834 45.292 32.3374V17.8395C45.292 16.8935 46.0556 16.1299 47.0016 16.1299C47.9476 16.1299 48.7113 16.8935 48.7113 17.8395V32.3374C48.7113 33.272 47.9476 34.047 47.0016 34.047Z" fill="#333333"/>
<path d="M53.5439 30.1035C53.2703 30.1035 52.9968 30.0351 52.746 29.8983L39.9464 23.0939C39.1144 22.6494 38.7953 21.6122 39.2398 20.7802C39.6843 19.9482 40.7215 19.629 41.5535 20.0735L54.3531 26.8779C55.1851 27.3224 55.5043 28.3596 55.0597 29.1917C54.752 29.7729 54.1593 30.1035 53.5439 30.1035Z" fill="#333333"/>
<path d="M41.1326 30.5823C40.5855 30.5823 40.0498 30.3201 39.7079 29.83C39.1836 29.0436 39.3887 27.9836 40.1752 27.4593L52.1883 19.3556C52.9748 18.8313 54.0347 19.0364 54.559 19.8229C55.0833 20.6093 54.8782 21.6693 54.0917 22.1936L42.09 30.2859C41.7937 30.4911 41.4631 30.5823 41.1326 30.5823Z" fill="#333333"/>
<path d="M86.8358 35.1184C86.6535 35.1184 86.4825 35.0956 86.3115 35.0386C85.7644 34.8562 85.3313 34.4117 85.1832 33.8532L84.1004 29.7957L79.906 30.0236C79.3134 30.0464 78.7663 29.7843 78.4357 29.317C78.0938 28.8497 78.014 28.2342 78.2192 27.6985L79.7351 23.7777L76.2018 21.4982C75.7117 21.179 75.4268 20.6434 75.4268 20.0621C75.4268 19.4808 75.7231 18.9451 76.2018 18.626L79.7351 16.3464L78.2192 12.4256C78.014 11.8899 78.0938 11.2745 78.4357 10.8072C78.7777 10.3399 79.3134 10.0891 79.906 10.1005L84.1004 10.3285L85.1832 6.2709C85.3313 5.71242 85.753 5.26791 86.3115 5.08554C86.87 4.90318 87.4627 5.01716 87.9186 5.38188L91.1783 8.03754L94.4381 5.38188C94.8826 5.01716 95.4867 4.90318 96.0451 5.08554C96.5922 5.26791 97.0139 5.71242 97.1735 6.2709L98.2563 10.3285L102.451 10.1005C103.055 10.0777 103.59 10.3285 103.921 10.8072C104.263 11.2745 104.343 11.8899 104.137 12.4256L102.622 16.335L106.155 18.6146C106.645 18.9337 106.93 19.4694 106.93 20.0507C106.93 20.632 106.634 21.1676 106.155 21.4868L102.622 23.7663L104.137 27.6871C104.343 28.2228 104.263 28.8383 103.921 29.3056C103.579 29.7729 103.043 30.035 102.451 30.0122L98.2563 29.7843L97.1735 33.8418C97.0253 34.4003 96.6036 34.8448 96.0451 35.0272C95.4867 35.2096 94.894 35.0956 94.4381 34.7309L91.1783 32.0752L87.9186 34.7309C87.6109 34.993 87.2233 35.1184 86.8358 35.1184ZM91.1783 28.1772C91.5545 28.1772 91.942 28.3026 92.2611 28.5647L94.552 30.4225L95.3157 27.5731C95.5208 26.7867 96.2503 26.2852 97.0595 26.308L100.012 26.4676L98.9515 23.7093C98.6552 22.9571 98.9401 22.1023 99.6126 21.6577L102.086 20.0507L99.6126 18.4436C98.9287 17.9991 98.6552 17.1443 98.9515 16.392L100 13.6452L97.0481 13.8048C96.2389 13.8276 95.5094 13.3147 95.3043 12.5396L94.5406 9.6902L92.2497 11.548C91.6228 12.0609 90.7224 12.0609 90.0956 11.548L87.8046 9.6902L87.041 12.5396C86.8358 13.3261 86.095 13.8276 85.2971 13.8048L82.3565 13.6452L83.4165 16.392C83.7129 17.1443 83.4279 17.9991 82.7555 18.4436L80.2822 20.0507L82.7555 21.6577C83.4393 22.1023 83.7129 22.9571 83.4165 23.7093L82.3565 26.4676L85.3085 26.308C86.1064 26.2852 86.8472 26.7867 87.0524 27.5731L87.816 30.4225L90.1069 28.5647C90.4147 28.3026 90.7908 28.1772 91.1783 28.1772Z" fill="#333333"/>
<path d="M86.779 66.0631C85.833 66.0631 85.0693 65.2994 85.0693 64.3534C85.0693 63.4074 85.833 62.6438 86.7676 62.6438C86.8132 62.6438 90.6656 62.5868 92.8084 60.1705C94.0279 58.8028 94.5066 56.8652 94.2445 54.4033C94.1419 53.4686 94.8257 52.6252 95.7603 52.5226C96.695 52.4201 97.5384 53.1039 97.641 54.0385C98.0171 57.5148 97.242 60.3528 95.3386 62.4728C92.1587 66.0289 86.9955 66.0631 86.779 66.0631Z" fill="#FF6600"/>
</svg>
