<svg width="150" height="150" viewBox="0 0 150 150" fill="none" xmlns="http://www.w3.org/2000/svg">
<path d="M92.4721 73.3518C86.0839 49.4169 83.7406 29.8896 82.9316 16.9551L71.2432 18.5359C72.1358 32.0748 74.6279 51.9647 81.137 76.3739C87.9251 101.806 89.1153 116.823 86.6697 130.669L98.4326 130.883C100.832 115.512 99.3253 99.0534 92.4721 73.3518Z" fill="#FF6600"/>
<path d="M97.8379 11.9059C96.5919 10.4088 94.3602 10.2042 92.8631 11.4502L86.5678 16.6947C86.5399 15.4673 86.5214 14.2584 86.5307 13.0775H81.8348H75.5582H65.3296C65.3296 14.4816 65.3482 15.9136 65.3761 17.3642L59.4714 13.6354C57.8255 12.594 55.6403 13.0868 54.5989 14.7327C53.5574 16.3786 54.0502 18.5638 55.6961 19.6052L65.8131 25.9934C65.934 27.6207 66.0828 29.2666 66.2595 30.9496L87.3768 29.0806C87.2373 27.8346 87.1351 26.6164 87.0328 25.4076C87.2281 25.296 87.4233 25.1751 87.6 25.0264L97.3915 16.8807C98.8886 15.6347 99.0932 13.403 97.8379 11.9059Z" fill="white"/>
<path d="M66.2591 32.5863C65.4315 32.5863 64.7341 31.9632 64.6411 31.1264C64.5017 29.778 64.3715 28.4018 64.2506 26.9419L54.831 20.9908C52.4226 19.4658 51.7066 16.2763 53.2223 13.8679C53.9569 12.7056 55.1007 11.8966 56.449 11.5898C57.7973 11.2922 59.1735 11.5247 60.3451 12.2593L63.702 14.3794C63.702 13.9423 63.702 13.5053 63.702 13.0683C63.702 12.1663 64.4273 11.441 65.3293 11.441H75.5578C76.4598 11.441 77.1851 12.1663 77.1851 13.0683C77.1851 13.9702 76.4598 14.6955 75.5578 14.6955H66.9658C66.9751 15.5696 66.9844 16.4437 67.0123 17.3364C67.0309 17.9408 66.7055 18.4987 66.1847 18.787C65.664 19.0845 65.0224 19.0659 64.511 18.7498L58.6063 15.021C58.1785 14.7513 57.6671 14.6583 57.165 14.7699C56.6629 14.8815 56.2444 15.1791 55.9747 15.6068C55.4168 16.4995 55.6772 17.6711 56.5699 18.2383L66.6776 24.6265C67.1146 24.9055 67.3936 25.3704 67.4308 25.8819C67.5145 27.0349 67.6074 28.1322 67.7097 29.1922L85.5911 27.6114C85.5261 26.9233 85.461 26.2352 85.4052 25.5471C85.3494 24.9055 85.6748 24.2918 86.2421 23.9849C86.3629 23.9198 86.4652 23.8455 86.5675 23.7711L96.3405 15.6254C96.731 15.2999 96.9728 14.8443 97.0193 14.3329C97.0658 13.8307 96.9077 13.3286 96.5822 12.9381C96.2568 12.5475 95.8011 12.3058 95.2897 12.2593C94.7969 12.2128 94.2854 12.3708 93.8949 12.6963L87.5997 17.9408C87.1161 18.3406 86.4559 18.4336 85.8887 18.1732C85.3215 17.9129 84.9495 17.355 84.9309 16.7319C84.9123 16.0531 84.903 15.3743 84.8937 14.7048H81.8252C80.9232 14.7048 80.1979 13.9795 80.1979 13.0775C80.1979 12.1756 80.9232 11.4503 81.8252 11.4503H86.521C86.9488 11.4503 87.3672 11.6269 87.6741 11.9245C87.9809 12.2314 88.1483 12.6498 88.1483 13.0775C88.1483 13.1333 88.1483 13.1891 88.1483 13.2449L91.812 10.1949C92.872 9.31157 94.2111 8.89313 95.5873 9.02331C96.9635 9.14419 98.2002 9.8044 99.0836 10.8645C99.967 11.9245 100.385 13.2635 100.255 14.6304C100.134 16.0066 99.4834 17.2434 98.4234 18.1268L88.7341 26.2073C88.8085 27.1 88.9015 28.002 88.9945 28.9133C89.041 29.3503 88.9108 29.7873 88.6318 30.1221C88.3529 30.4568 87.953 30.6707 87.516 30.7079L66.3986 32.577C66.3614 32.5863 66.3056 32.5863 66.2591 32.5863Z" fill="#333333"/>
<path d="M70.471 54.494C70.8337 55.9353 71.2242 57.3859 71.6334 58.8551L92.9181 56.0283C92.4346 54.4475 91.9975 52.876 91.5791 51.3325L100.357 43.3356C101.798 42.0244 101.901 39.7834 100.59 38.3421C99.2784 36.9008 97.0374 36.7986 95.5961 38.1097L89.6915 43.4936C89.4125 42.1918 89.1614 40.8993 88.9197 39.6161L67.7186 41.4944C67.9325 42.7311 68.1649 43.9958 68.4067 45.2604L62.3346 41.792C60.6423 40.8249 58.485 41.4107 57.5179 43.1031C56.5508 44.7955 57.1367 46.9528 58.829 47.9198L69.8852 54.2337C70.0805 54.3359 70.2757 54.4196 70.471 54.494Z" fill="white"/>
<path d="M71.634 60.4823C70.918 60.4823 70.2671 60.0081 70.0718 59.2921C69.7278 58.0647 69.4023 56.8558 69.0955 55.647L58.0393 49.3332C55.5659 47.9198 54.7104 44.7582 56.1145 42.2941C57.0258 40.6947 58.746 39.6904 60.5965 39.6904C61.4891 39.6904 62.3725 39.9229 63.1536 40.3692L66.1757 42.0988C66.1571 41.9872 66.1385 41.8756 66.1199 41.764C66.0455 41.3177 66.1571 40.8528 66.436 40.4994C66.715 40.1368 67.1335 39.9136 67.5798 39.8764L88.7809 37.9981C89.6177 37.9237 90.3709 38.5002 90.529 39.3278C90.5941 39.6718 90.6592 40.0159 90.7243 40.3599L94.4996 36.9008C95.448 36.036 96.6848 35.5525 97.9773 35.5525C99.4279 35.5525 100.813 36.1662 101.79 37.2356C102.72 38.2491 103.194 39.5695 103.129 40.9457C103.064 42.322 102.469 43.5959 101.455 44.5258L93.4116 51.8531C93.7743 53.1643 94.1183 54.3824 94.4717 55.5447C94.6112 56.0004 94.5368 56.4932 94.2857 56.893C94.0253 57.2929 93.6069 57.5625 93.1327 57.6276L71.8479 60.4544C71.7828 60.473 71.7084 60.4823 71.634 60.4823ZM60.5965 42.945C59.9084 42.945 59.276 43.3169 58.9413 43.9027C58.4206 44.814 58.7367 45.9856 59.648 46.5064L70.7042 52.8202C70.8064 52.876 70.918 52.9225 71.0203 52.9597C71.5317 53.1457 71.9223 53.5641 72.0525 54.0941C72.3035 55.0798 72.5639 56.0655 72.8336 57.0604L90.8266 54.6706C90.5569 53.7408 90.2873 52.783 90.0176 51.7601C89.8595 51.1743 90.0455 50.542 90.4918 50.1329L99.2698 42.136C99.6418 41.7919 99.8649 41.327 99.8928 40.8156C99.9207 40.3041 99.744 39.8206 99.4 39.4487C98.7119 38.6955 97.4659 38.6397 96.7034 39.3278L90.7987 44.7117C90.3709 45.1023 89.7572 45.2418 89.2086 45.0558C88.6507 44.8791 88.2415 44.4142 88.1114 43.8469C87.9347 43.0194 87.7673 42.2011 87.6092 41.3828L69.6348 42.945C69.7557 43.6052 69.8859 44.2654 70.0161 44.9349C70.1369 45.5579 69.8859 46.1995 69.3651 46.5715C68.8444 46.9434 68.1656 46.9806 67.6077 46.6645L61.5356 43.196C61.2474 43.0287 60.9219 42.945 60.5965 42.945Z" fill="#333333"/>
<path d="M107.583 64.0903C106.17 62.742 103.938 62.7978 102.59 64.2112L97.5032 69.5486C97.1405 68.47 96.7779 67.382 96.378 66.2755L91.459 66.9264L85.2289 67.754L74.8608 69.1302C75.1863 70.0694 75.5117 71.0085 75.8651 71.957C76.0511 72.4591 76.2184 72.9427 76.3951 73.4355L69.6721 70.1995C67.9147 69.3533 65.8039 70.0879 64.9577 71.8454C64.1115 73.6029 64.8461 75.7137 66.6036 76.5599L78.0782 82.0833C78.4687 82.2693 78.8779 82.3715 79.287 82.4087C79.5102 83.1805 79.7334 83.9523 79.9286 84.7055L101.511 83.413C101.037 81.4324 100.488 79.3681 99.893 77.2666L107.704 69.0744C109.052 67.6703 108.996 65.4293 107.583 64.0903Z" fill="white"/>
<path d="M79.9383 86.3422C79.2037 86.3422 78.5621 85.8494 78.3668 85.1334C78.2459 84.6963 78.125 84.25 77.9949 83.8037C77.781 83.7386 77.5764 83.6549 77.3719 83.5526L65.9065 78.0292C63.3494 76.7924 62.2614 73.7052 63.4982 71.1388C64.0933 69.8928 65.144 68.9629 66.4459 68.5073C67.7477 68.0516 69.1518 68.1353 70.3885 68.7304L73.5408 70.2461C73.4757 70.0509 73.4013 69.8556 73.3362 69.6603C73.1781 69.1954 73.2339 68.6932 73.485 68.2748C73.7454 67.8564 74.1731 67.5774 74.6566 67.5123L85.0247 66.1361C85.9174 66.0152 86.7357 66.6475 86.8472 67.5309C86.9681 68.4236 86.3358 69.2419 85.4524 69.3628L77.0743 70.4786C77.1859 70.7855 77.2975 71.083 77.4091 71.3899C77.5206 71.6874 77.6229 71.985 77.7252 72.2732L77.9391 72.8777C78.1622 73.5007 77.9856 74.1981 77.502 74.6351C77.0092 75.0815 76.3025 75.1744 75.7074 74.8955L68.9844 71.6595C68.5288 71.4364 68.0081 71.4085 67.5245 71.5758C67.041 71.7432 66.6597 72.0873 66.4366 72.5429C65.9809 73.4914 66.3808 74.6351 67.3292 75.0908L78.7946 80.6142C78.9805 80.7072 79.1944 80.763 79.4455 80.7816C80.115 80.8467 80.6729 81.3116 80.8589 81.9532C80.9612 82.3066 81.0634 82.6506 81.1564 82.9947L99.4749 81.8974C99.1494 80.6142 98.7775 79.2287 98.3405 77.7037C98.1824 77.1458 98.3312 76.5507 98.731 76.1415L106.542 67.9493C106.895 67.5774 107.081 67.0939 107.063 66.5917C107.053 66.0803 106.839 65.6061 106.477 65.262C106.105 64.9087 105.612 64.7134 105.119 64.732C104.608 64.7413 104.134 64.9552 103.79 65.3271L98.7031 70.6646C98.3126 71.0737 97.7267 71.2504 97.1688 71.1295C96.6109 71.0086 96.1646 70.5995 95.9786 70.0602L95.9414 69.9486C95.7275 69.3256 95.5229 68.6932 95.2998 68.0609L91.6919 68.5352C90.7992 68.656 89.9809 68.0237 89.8693 67.1404C89.7484 66.2477 90.3808 65.4294 91.2641 65.3178L96.1832 64.6669C96.9456 64.5646 97.6709 65.0109 97.9313 65.7362C98.0243 65.9873 98.108 66.2384 98.1917 66.4894L101.428 63.0954C102.376 62.1005 103.659 61.5332 105.036 61.496C106.412 61.4588 107.723 61.9703 108.718 62.9187C109.713 63.8672 110.28 65.1504 110.317 66.5266C110.354 67.9028 109.843 69.214 108.894 70.2089L101.725 77.7316C102.274 79.7122 102.729 81.4604 103.111 83.0505C103.222 83.5154 103.12 84.0082 102.832 84.3988C102.543 84.78 102.106 85.0218 101.623 85.0497L80.0406 86.3422C80.0034 86.3422 79.9662 86.3422 79.9383 86.3422Z" fill="#333333"/>
<path d="M114.864 93.809C113.665 92.2654 111.451 91.9865 109.908 93.186L104.04 97.7424C103.901 96.4964 103.743 95.2317 103.548 93.9299L82.2442 95.2038C82.4301 96.3197 82.5789 97.4076 82.7184 98.477L76.4604 94.2182C74.8517 93.1209 72.6479 93.5301 71.5506 95.148C70.4534 96.7567 70.8718 98.9512 72.4805 100.058L83.0066 107.227C83.1461 107.32 83.2856 107.385 83.4344 107.46C83.453 108.343 83.4716 109.236 83.4623 110.091H104.71C104.719 108.826 104.71 107.534 104.673 106.204L114.25 98.7652C115.785 97.5657 116.054 95.3526 114.864 93.809Z" fill="white"/>
<path d="M104.7 111.709H83.4529C83.0159 111.709 82.5974 111.532 82.2906 111.226C81.9837 110.919 81.8163 110.491 81.8256 110.063C81.8349 109.515 81.8256 108.957 81.8163 108.39L71.5598 101.406C69.2073 99.7975 68.6029 96.5894 70.2022 94.2369C71.16 92.8235 72.7594 91.9773 74.4703 91.9773C75.5118 91.9773 76.5161 92.2841 77.3715 92.8792L80.6075 95.083C80.6354 94.7576 80.7563 94.4507 80.9608 94.1904C81.2491 93.8277 81.6768 93.6045 82.1325 93.5767L103.436 92.3027C104.273 92.2562 105.017 92.8514 105.147 93.6882C105.193 94.023 105.24 94.3578 105.286 94.7018L108.894 91.9029C109.805 91.1962 110.903 90.8149 112.056 90.8149C113.664 90.8149 115.152 91.5402 116.138 92.8142C116.984 93.9021 117.356 95.2504 117.179 96.6173C117.012 97.9842 116.315 99.2024 115.227 100.049L106.3 106.976C106.328 108.027 106.328 109.078 106.318 110.091C106.318 110.993 105.593 111.709 104.7 111.709ZM85.0802 108.455H103.082C103.073 107.729 103.064 106.985 103.036 106.251C103.017 105.73 103.25 105.237 103.668 104.912L113.246 97.4728C113.646 97.1567 113.906 96.7103 113.971 96.2082C114.036 95.7061 113.897 95.2039 113.59 94.8041C112.967 94.0044 111.73 93.837 110.912 94.4693L105.045 99.0257C104.58 99.3883 103.957 99.472 103.417 99.2396C102.878 99.0071 102.497 98.505 102.432 97.9192C102.339 97.0916 102.246 96.3477 102.153 95.641L84.141 96.7196C84.2154 97.2404 84.2805 97.7518 84.3549 98.2632C84.4386 98.8955 84.141 99.5278 83.5924 99.8626C83.0438 100.197 82.3557 100.179 81.8256 99.8254L75.5676 95.5666C74.7214 94.9901 73.494 95.2318 72.9175 96.0687C72.3223 96.9335 72.5548 98.1237 73.4196 98.7188L83.9364 105.888C83.9922 105.925 84.0387 105.944 84.0945 105.972C84.6338 106.242 85.0616 106.827 85.0709 107.432C85.0616 107.766 85.0709 108.111 85.0802 108.455Z" fill="#333333"/>
<path d="M107.759 120.441L103.622 123.305C103.752 122.449 103.873 121.584 103.984 120.701H82.5321C82.281 122.273 81.9835 123.798 81.6673 125.295L74.3027 119.678C72.7498 118.497 70.5367 118.786 69.3558 120.338C68.1749 121.891 68.4724 124.104 70.016 125.285L79.8541 132.789C79.5472 133.924 79.2403 135.049 78.9335 136.174C78.608 137.374 78.2733 138.592 77.9478 139.819L99.9021 139.968C100.488 137.82 101.083 135.598 101.641 133.282L111.786 126.252C113.385 125.137 113.785 122.942 112.679 121.333C111.563 119.725 109.359 119.325 107.759 120.441Z" fill="white"/>
<path d="M99.9022 141.595H99.8929L77.9386 141.456C77.4365 141.456 76.9623 141.214 76.6554 140.814C76.3485 140.414 76.2463 139.893 76.3764 139.41C76.7019 138.182 77.0366 136.955 77.3621 135.755C77.576 134.984 77.7805 134.212 77.9944 133.431L69.0304 126.587C66.7709 124.857 66.3338 121.612 68.0634 119.353C69.0397 118.06 70.5368 117.325 72.1641 117.325C73.3079 117.325 74.3865 117.688 75.2978 118.385L80.5888 122.421C80.7189 121.733 80.8305 121.091 80.9328 120.45C81.0537 119.659 81.7418 119.074 82.5415 119.074H103.994C104.459 119.074 104.905 119.278 105.212 119.622C105.323 119.752 105.416 119.892 105.481 120.041L106.839 119.101C107.704 118.497 108.727 118.181 109.777 118.181C111.47 118.181 113.06 119.009 114.018 120.403C114.799 121.538 115.096 122.905 114.855 124.262C114.613 125.62 113.85 126.801 112.716 127.582L103.082 134.258C102.543 136.462 101.976 138.582 101.483 140.386C101.288 141.102 100.637 141.595 99.9022 141.595ZM80.068 138.21L98.6654 138.331C99.1118 136.667 99.6046 134.798 100.06 132.891C100.153 132.501 100.386 132.166 100.711 131.934L110.856 124.904C111.275 124.616 111.553 124.179 111.646 123.676C111.739 123.174 111.628 122.672 111.34 122.254C110.763 121.417 109.526 121.194 108.689 121.77L104.552 124.644C104.012 125.015 103.315 125.034 102.766 124.69C102.218 124.346 101.92 123.704 102.022 123.063C102.059 122.821 102.097 122.579 102.134 122.328H83.9084C83.7317 123.342 83.5178 124.42 83.2668 125.629C83.1552 126.178 82.7647 126.624 82.2439 126.819C81.7139 127.015 81.1374 126.922 80.691 126.587L73.3265 120.971C72.5082 120.348 71.2714 120.515 70.6577 121.324C70.0161 122.161 70.1835 123.36 71.0111 123.993L80.8398 131.497C81.3605 131.897 81.593 132.575 81.4256 133.208C81.1188 134.342 80.8119 135.477 80.5051 136.602C80.3656 137.132 80.2168 137.671 80.068 138.21Z" fill="#333333"/>
<path d="M30.3747 105.832C29.9469 105.832 29.5192 105.665 29.1937 105.33C21.6153 97.3796 17.9888 86.8814 19.2441 76.5319C20.2577 68.1909 24.4142 60.4079 30.9512 54.6334C31.6207 54.0383 32.6529 54.1034 33.248 54.7729C33.8431 55.4424 33.778 56.4746 33.1085 57.0697C27.0922 62.3978 23.4099 69.2603 22.4801 76.9317C21.3363 86.3048 24.6467 95.8453 31.5556 103.089C32.1786 103.74 32.1507 104.772 31.4998 105.386C31.1837 105.683 30.7838 105.832 30.3747 105.832Z" fill="#FF6600"/>
<path d="M39.4221 99.8905C39.0129 99.8905 38.6038 99.7324 38.2876 99.4255C32.3086 93.5766 29.426 85.7285 30.3837 77.8897C31.1369 71.6968 34.2613 65.9595 39.1896 61.7378C39.8684 61.152 40.9006 61.2357 41.4864 61.9145C42.0722 62.5933 41.9885 63.6255 41.3097 64.2113C37.0044 67.9029 34.2706 72.8963 33.6104 78.2802C32.7735 85.1055 35.3121 91.9679 40.5565 97.1008C41.1981 97.7332 41.2074 98.756 40.5844 99.3976C40.2683 99.7324 39.8405 99.8905 39.4221 99.8905Z" fill="#FF6600"/>
<path d="M47.9958 94.2554C47.6238 94.2554 47.2519 94.1345 46.945 93.8742C42.4723 90.1082 40.2034 84.6126 40.8636 79.1636C41.3751 74.9885 43.551 71.176 47.0008 68.4329C47.7075 67.875 48.7304 67.9866 49.2883 68.6933C49.8462 69.4 49.7346 70.4228 49.0279 70.9807C46.2569 73.1938 44.4994 76.2345 44.0996 79.5634C43.5696 83.9152 45.42 88.3414 49.0465 91.3914C49.7346 91.9679 49.8183 93.0001 49.2418 93.6882C48.9163 94.0601 48.4514 94.2554 47.9958 94.2554Z" fill="#FF6600"/>
</svg>
