<?xml version="1.0" encoding="utf-8"?>
<!-- Generator: Adobe Illustrator 23.0.4, SVG Export Plug-In . SVG Version: 6.00 Build 0)  -->
<svg version="1.0" id="Layer_1" xmlns="http://www.w3.org/2000/svg" xmlns:xlink="http://www.w3.org/1999/xlink" x="0px" y="0px"
	 viewBox="0 0 60 60" style="enable-background:new 0 0 60 60;" xml:space="preserve">
<style type="text/css">
	.st0{fill:#FF6600;}
	.st1{fill:#FFFFFF;}
</style>
<circle class="st0" cx="30" cy="30" r="30"/>
<g>
	<path class="st1" d="M37.2,42.5H17.5V16.9h19.8v1.4h1.1v-2.9c0-1.1-0.9-2-2-2h-18c-1.1,0-2,0.9-2,2v29.4c0,1.1,0.9,2,2,2h18
		c1.1,0,2-0.9,2-2V32.6l-1.1,1.1L37.2,42.5L37.2,42.5z M25.2,14.5h4.2c0.3,0,0.5,0.3,0.5,0.5c0,0.3-0.3,0.5-0.5,0.5h-4.2
		c-0.3,0-0.5-0.3-0.5-0.5C24.7,14.8,24.9,14.5,25.2,14.5z M22.5,45.7c-0.5,0-1-0.4-1-1c0-0.5,0.4-1,1-1c0.5,0,1,0.4,1,1
		C23.5,45.3,23.1,45.7,22.5,45.7z M27.4,45.7c-0.5,0-1-0.4-1-1c0-0.5,0.4-1,1-1c0.5,0,1,0.4,1,1C28.2,45.3,27.8,45.7,27.4,45.7z
		 M32.1,45.7c-0.5,0-1-0.4-1-1c0-0.5,0.4-1,1-1s1,0.4,1,1C33.1,45.3,32.6,45.7,32.1,45.7z"/>
	<path class="st1" d="M45.7,19.2H34c-1.1,0-2,0.9-2,2v7.3c0,1.1,0.9,2,2,2h0.4v3.2c0,0.4,0.1,0.5,0.4,0.5c0.1,0,0.3-0.1,0.4-0.2
		l3.8-3.5h6.7c1.1,0,2-0.9,2-2v-7.3C47.8,20.2,46.8,19.2,45.7,19.2z M46.7,28.6c0,0.5-0.4,1.1-1.1,1.1h-6.7h-0.4l-0.3,0.3l-2.8,2.6
		v-1.8v-1.1h-1.1H34c-0.5,0-1.1-0.4-1.1-1.1v-7.3c0-0.5,0.4-1.1,1.1-1.1h11.7c0.5,0,1.1,0.4,1.1,1.1C46.7,21.3,46.7,28.6,46.7,28.6z
		"/>
</g>
</svg>
