<svg width="18" height="18" viewBox="0 0 18 18" fill="none" xmlns="http://www.w3.org/2000/svg">
<ellipse cx="9.00003" cy="9" rx="3" ry="3" stroke="#999"/>
<path d="M2.00709 9.45444C1.85309 9.27612 1.72646 9.12154 1.62977 9C1.72646 8.87847 1.85309 8.72388 2.00709 8.54556C2.40036 8.09018 2.96897 7.48367 3.66991 6.87845C5.08732 5.65462 6.97193 4.5 9 4.5C11.0281 4.5 12.9127 5.65462 14.3301 6.87845C15.031 7.48367 15.5996 8.09018 15.9929 8.54556C16.1469 8.72388 16.2735 8.87847 16.3702 9C16.2735 9.12154 16.1469 9.27612 15.9929 9.45444C15.5996 9.90982 15.031 10.5163 14.3301 11.1215C12.9127 12.3454 11.0281 13.5 9 13.5C6.97193 13.5 5.08732 12.3454 3.66991 11.1215C2.96897 10.5163 2.40036 9.90982 2.00709 9.45444Z" stroke="#999"/>
</svg>
